<?xml version="1.0" encoding="utf-8"?><svg xmlns="http://www.w3.org/2000/svg" xmlns:xlink="http://www.w3.org/1999/xlink"><symbol fill="none" viewBox="0 0 30 31" id="+" xmlns="http://www.w3.org/2000/svg"><path stroke="#fff" stroke-width="2" d="M6 15.192h18M15.308 6.5v18"/><circle cx="15" cy="15.5" r="14" stroke="#fff" stroke-width="2"/></symbol><symbol fill="none" viewBox="0 0 30 31" id="-" xmlns="http://www.w3.org/2000/svg"><path stroke="#fff" stroke-width="2" d="M6 15.192h18"/><circle cx="15" cy="15.5" r="14" stroke="#fff" stroke-width="2"/></symbol><symbol viewBox="0 0 145 177" id="0" xmlns="http://www.w3.org/2000/svg"><path fill="none" stroke="#FFF" d="M21.784 152.255C7.928 136.345 1 115.095 1 88.5c0-26.594 6.928-47.826 20.784-63.696C35.64 8.934 52.624 1 72.734 1c20.111 0 37.095 7.935 50.95 23.804 13.857 15.87 20.784 37.102 20.784 63.696s-6.927 47.826-20.783 63.696C109.829 168.066 92.845 176 72.735 176c-20.112 0-37.095-7.915-50.951-23.745zm82.604-17.509c8.853-11.29 13.279-26.725 13.279-46.305s-4.407-34.976-13.22-46.187c-8.812-11.212-19.383-16.817-31.713-16.817-12.33 0-22.9 5.605-31.713 16.817C32.208 53.465 27.8 68.86 27.8 88.44s4.407 34.995 13.22 46.246c8.812 11.25 19.383 16.876 31.713 16.876 12.33 0 22.881-5.605 31.654-16.817z"/></symbol><symbol viewBox="0 0 59 173" id="1" xmlns="http://www.w3.org/2000/svg"><path fill="none" stroke="#FFF" d="M37.13 1.365h20.532v170.27h-26.55V42.805H.906V24.518c10.148-1.108 17.877-3.543 23.187-7.303 5.31-3.76 9.656-9.043 13.039-15.851z"/></symbol><symbol viewBox="0 0 115 175" id="2" xmlns="http://www.w3.org/2000/svg"><path fill="none" stroke="#FFF" d="M114.197 174.034H1.135c0-10.552 1.583-20.132 4.75-28.74 3.167-8.608 7.304-15.768 12.411-21.48a126.892 126.892 0 0116.864-15.71c6.136-4.76 12.253-9.103 18.349-13.03 6.097-3.928 11.698-7.795 16.805-11.603 5.107-3.809 9.244-8.271 12.41-13.388 3.168-5.118 4.751-10.691 4.751-16.72 0-8.648-2.672-15.471-8.016-20.47-5.345-4.998-12.807-7.497-22.387-7.497-4.671 0-9.046.853-13.123 2.559-4.078 1.705-7.245 3.729-9.501 6.069-2.257 2.34-4.236 4.7-5.938 7.08-1.703 2.38-2.87 4.444-3.504 6.19l-.831 2.498-21.853-9.758a93.285 93.285 0 011.366-4.284c.594-1.746 2.257-4.84 4.988-9.283 2.732-4.443 5.919-8.37 9.56-11.781 3.643-3.412 8.908-6.546 15.796-9.402C40.92 2.428 48.6 1 57.072 1c16.706 0 30.403 5.038 41.092 15.114 10.688 10.076 16.033 22.492 16.033 37.248 0 7.775-1.584 14.995-4.75 21.66-3.168 6.664-7.186 12.237-12.055 16.72-4.87 4.482-10.451 9.084-16.746 13.804-6.294 4.72-12.41 9.025-18.349 12.912-5.938 3.888-11.777 8.549-17.517 13.983-5.74 5.435-10.154 11.167-13.242 17.197h82.659v24.396z"/></symbol><symbol viewBox="0 0 123 177" id="3" xmlns="http://www.w3.org/2000/svg"><path fill="none" stroke="#FFF" d="M92.07 83.632c.792.317 1.88.772 3.265 1.366 1.386.593 3.82 2.018 7.302 4.274 3.483 2.255 6.57 4.848 9.26 7.776 2.692 2.929 5.125 6.985 7.302 12.17 2.177 5.184 3.265 10.863 3.265 17.036 0 13.93-5.56 25.704-16.68 35.321C94.662 171.192 79.96 176 61.676 176c-7.757 0-15.117-.93-22.083-2.79-6.965-1.86-12.723-4.076-17.274-6.649-4.551-2.572-8.489-5.164-11.813-7.776-3.325-2.612-5.739-4.789-7.242-6.53L.89 149.287l16.978-16.978c.316.475.89 1.168 1.721 2.078.831.91 2.632 2.493 5.402 4.749a60.591 60.591 0 008.726 5.936c3.048 1.702 7.084 3.245 12.11 4.63 5.026 1.386 10.31 2.078 15.85 2.078 10.527 0 18.838-2.552 24.932-7.658 6.095-5.105 9.142-11.476 9.142-19.114s-3.047-14.01-9.142-19.115c-6.094-5.105-14.405-7.658-24.932-7.658H44.7V73.897h16.978c8.39 0 14.94-2.177 19.649-6.53 4.71-4.353 7.064-10.27 7.064-17.75 0-7.479-2.355-13.395-7.064-17.749-4.71-4.353-11.259-6.53-19.649-6.53-7.123 0-13.851 1.544-20.183 4.63-6.332 3.088-10.804 6.056-13.416 8.905l-4.037 4.63L6.945 26.526c.475-.633 1.207-1.524 2.196-2.672.99-1.147 3.186-3.225 6.59-6.233a63.094 63.094 0 0110.922-7.776C30.532 7.668 35.637 5.65 41.97 3.79 48.3 1.93 54.87 1 61.677 1c16.7 0 29.8 4.294 39.298 12.882 9.498 8.587 14.247 19.688 14.247 33.302 0 4.67-.811 9.161-2.434 13.475-1.623 4.314-3.582 7.816-5.877 10.507s-4.531 5.006-6.708 6.946c-2.176 1.939-4.096 3.304-5.758 4.096l-2.374 1.424z"/></symbol><symbol viewBox="0 0 133 172" id="4" xmlns="http://www.w3.org/2000/svg"><path fill="none" stroke="#FFF" d="M110.464 112.839h21.845v24.338h-21.845v34.074H83.632v-34.074H1V108.09L76.39 1h34.074v111.839zm-26.832 0V31.393L26.526 112.84h57.106z"/></symbol><symbol viewBox="0 68 88 88" id="Starlink_-_vertical" xmlns="http://www.w3.org/2000/svg"><g fill="#000" fill-rule="evenodd"><path d="M1.794 82.5a7.408 7.408 0 001.924 1.665c.745.45 1.587.676 2.523.676.416 0 .819-.065 1.209-.195.39-.13.728-.316 1.014-.56.286-.242.516-.528.69-.858.172-.329.26-.702.26-1.118 0-.693-.213-1.252-.638-1.677-.425-.425-.953-.793-1.586-1.105a23.728 23.728 0 00-2.041-.884 10.273 10.273 0 01-2.003-1.014 5.967 5.967 0 01-1.651-1.613c-.442-.641-.663-1.439-.663-2.392 0-.659.139-1.283.416-1.872a4.794 4.794 0 011.157-1.547 5.492 5.492 0 011.742-1.04c.668-.251 1.4-.378 2.198-.378a7.207 7.207 0 012.951.611 8.014 8.014 0 011.938 1.21l-1.535 1.898c-.988-.833-2.071-1.249-3.25-1.249-.382 0-.75.053-1.105.157a3.09 3.09 0 00-.962.468 2.428 2.428 0 00-.69.767c-.173.303-.26.655-.26 1.053 0 .572.213 1.049.638 1.43.424.382.952.724 1.586 1.027.632.304 1.308.603 2.028.898.719.295 1.374.633 1.963 1.014.312.207.607.442.885.702.277.26.528.559.754.897.225.338.403.72.533 1.144.13.425.195.897.195 1.417 0 .798-.148 1.522-.442 2.171a5.053 5.053 0 01-1.196 1.665 5.342 5.342 0 01-1.782 1.066 6.406 6.406 0 01-2.223.377 8.062 8.062 0 01-3.51-.78C1.767 86.01.813 85.257 0 84.269L1.793 82.5zm19.841 4.551a4.27 4.27 0 01-.883.195 8.51 8.51 0 01-1.04.065c-.78 0-1.453-.126-2.016-.377a4.165 4.165 0 01-1.443-1.053 3.365 3.365 0 01-.767-1.43 7.091 7.091 0 01-.221-1.82V77.04h-3.12v-2.21h3.12v-3.38h2.47v3.38h3.9v2.21h-3.9v5.72c0 .33.021.624.065.885.043.26.143.485.3.676.172.207.415.368.727.48.312.113.633.17.963.17.19 0 .415-.013.675-.04.26-.025.485-.064.676-.116l.494 2.236zm11.182-8.4a4.607 4.607 0 00-1.469-1.248c-.598-.329-1.27-.493-2.015-.493-.59 0-1.127.108-1.613.324a3.657 3.657 0 00-1.235.885 4.163 4.163 0 00-.793 1.287 4.153 4.153 0 00-.286 1.534c0 .555.1 1.075.3 1.56.198.486.48.91.844 1.275a4.16 4.16 0 001.287.87 4.005 4.005 0 001.626.325c.624 0 1.235-.15 1.833-.455a4.326 4.326 0 001.521-1.286v-4.577zm.079 7.282a5.24 5.24 0 01-1.717 1.027 5.953 5.953 0 01-2.054.35 6.18 6.18 0 01-1.639-.22 5.934 5.934 0 01-1.43-.585 6.394 6.394 0 01-2.262-2.275c-.572-.963-.858-2.059-.858-3.29 0-1.23.29-2.331.87-3.302a6.467 6.467 0 012.276-2.289 5.782 5.782 0 011.378-.572 6.054 6.054 0 011.613-.208c.693 0 1.365.109 2.015.325a5.27 5.27 0 011.808 1.054v-1.119h2.392v12.222h-2.392v-1.118zm12.897-8.92a3.805 3.805 0 00-.962-.103c-.642 0-1.266.194-1.873.585-.607.39-1.083.88-1.43 1.469v8.087h-2.47V74.829h2.392v1.405c.295-.416.755-.798 1.379-1.145.624-.346 1.386-.52 2.288-.52.139 0 .3.005.481.013.182.009.342.03.481.066l-.286 2.366z"/><path mask="url(#starlink---vertical-b)" d="M48.419 86.902h2.471V68.439h-2.471zM54.66 86.902h2.47V74.68h-2.47v12.222zm-.39-16.564c0-.451.156-.837.468-1.157a1.534 1.534 0 011.145-.482c.45 0 .836.16 1.157.482.32.32.48.706.48 1.157 0 .45-.16.832-.48 1.144a1.6 1.6 0 01-1.157.468c-.452 0-.833-.156-1.145-.468a1.554 1.554 0 01-.468-1.144zm9.023 5.512c.33-.312.802-.628 1.417-.95.616-.32 1.366-.48 2.25-.48.9 0 1.737.195 2.509.585.771.39 1.417.915 1.937 1.573a5.19 5.19 0 01.897 1.756c.2.668.3 1.53.3 2.587v5.981h-2.471v-6.111c0-.78-.065-1.378-.195-1.794a3.1 3.1 0 00-.533-1.04 3.233 3.233 0 00-1.105-.872 3.184 3.184 0 00-1.418-.324c-.814 0-1.512.178-2.093.532-.58.356-1.052.76-1.417 1.21v8.399h-2.47V74.68h2.392v1.17zM87.945 86.902h-3.303l-6.059-5.981v5.981h-2.47V68.439h2.47v10.922l5.097-4.681h3.485l-6.111 5.513z" transform="translate(0 .149)"/></g></symbol><symbol viewBox="0 0 120 90" id="agency_letters" xmlns="http://www.w3.org/2000/svg"><path d="M54.532 89.267L5.094 46.705v42.562H.944V.35h4.15v42.443L53.821.35h2.49v2.49L8.531 44.57 57.26 86.54v2.727h-2.727zm34.209 0H66.452V.35h21.814c16.954 0 27.624 8.062 27.624 22.288 0 9.01-4.031 17.072-16.005 20.866 12.33 3.201 19.799 10.433 19.799 21.696 0 16.005-11.975 24.067-30.943 24.067zM70.6 3.907v38.175h16.717c6.995 0 12.922-1.542 17.546-4.506 4.624-2.963 6.876-7.943 6.876-14.938 0-11.974-10.551-18.731-23.592-18.731H70.602zm0 41.613v40.19H88.86c14.701 0 26.675-5.69 26.675-20.392 0-13.633-13.16-19.798-26.556-19.798H70.602z" fill="#FFF" fill-rule="evenodd"/></symbol><symbol viewBox="0 0 68 18" id="arrow-big" xmlns="http://www.w3.org/2000/svg"><g fill="none"><path d="M59 8H0v2h59zM66.586 9L60 15.586V2.414L66.586 9z"/></g></symbol><symbol viewBox="0 0 16 35" id="arrow-enter" xmlns="http://www.w3.org/2000/svg"><g fill-rule="evenodd"><path d="M16 0v31H2v-1h13V0z"/><path d="M6.002 34.187l-.707.707-4.379-4.379 4.38-4.379.706.707-3.671 3.672z"/></g></symbol><symbol viewBox="0 0 44 15" id="arrow-medium" xmlns="http://www.w3.org/2000/svg"><g fill="none" fill-rule="evenodd"><path d="M0 7.5h35M35 1v13l8-6.5z"/></g></symbol><symbol viewBox="-4 -1 22 12" id="arrow-slim-black" xmlns="http://www.w3.org/2000/svg"><g stroke="#000" fill="none" fill-rule="evenodd"><path d="M-6 5h16M10 10l7-5-7-5z"/></g></symbol><symbol viewBox="-4 -1 22 12" id="arrow-slim-white" xmlns="http://www.w3.org/2000/svg"><g stroke="#FFF" fill="none" fill-rule="evenodd"><path d="M-6 5h16M10 10l7-5-7-5z"/></g></symbol><symbol viewBox="0 0 13 12" id="arrow-top-right" xmlns="http://www.w3.org/2000/svg"><g stroke="#000" fill="none" fill-rule="evenodd"><path d="M5.8.6h6v6M11.826.6L1.008 11.416"/></g></symbol><symbol viewBox="20 -0.235 213 71" id="arrow_footer" xmlns="http://www.w3.org/2000/svg"><path d="M0 26.488v17.656h167.747v26.487l44.143-35.315L167.747 0v26.488z"/></symbol><symbol viewBox="6.5 11 35 30" id="connect" xmlns="http://www.w3.org/2000/svg"><g stroke="#FFF" fill="#FFF" fill-rule="evenodd"><path d="M38.227 9H9.773A2.785 2.785 0 007 11.79v16.738a2.785 2.785 0 002.773 2.79h1.622v6.887a.796.796 0 00.79.795c.206 0 .408-.08.56-.233l7.403-7.45h18.079A2.785 2.785 0 0041 28.528V11.79A2.785 2.785 0 0038.227 9z"/></g></symbol><symbol viewBox="0 0 26.7 26.7" id="dna" xmlns="http://www.w3.org/2000/svg"><g data-name="Layer 2"><path d="M26.49 6.36a.32.32 0 00-.42.18 9 9 0 01-.71 1.39l-6.59-6.59a9.52 9.52 0 011.39-.71.32.32 0 00.18-.42.32.32 0 00-.41-.21 14.16 14.16 0 00-4.49 3.1c-2 2-2.15 4.33-2.35 8.51L13 13.06c-4.94.28-8.1.57-9.9 2.38A19.6 19.6 0 000 19.9a.32.32 0 00.15.43.28.28 0 00.15 0 .33.33 0 00.29-.18s.25-.51.66-1.2l6.44 6.43c-.7.41-1.19.66-1.2.66a.33.33 0 00-.15.44.33.33 0 00.43.15 19.56 19.56 0 004.47-3.09c1.62-1.62 2-4.15 2.33-9.19v-.71l1.44-.07c4.18-.2 6.48-.31 8.52-2.35a14.11 14.11 0 003.09-4.49.32.32 0 00-.13-.37zM25 8.58a14.86 14.86 0 01-1.24 1.59L16.53 3a14.86 14.86 0 011.59-1.24zm-6.69 4.17l-2.89-2.83L14 8.45A11.87 11.87 0 0114.42 6l.86.86 5.46 5.46a11.16 11.16 0 01-2.48.43zM13 14.36c-.06 1.05-.13 2-.21 2.82L9.52 14c1-.1 2.16-.18 3.46-.25zm-.32 3.78a15.31 15.31 0 01-.48 2.52L6 14.55a15.87 15.87 0 012.53-.48zm-11 .19A17 17 0 013 16.59l7.16 7.16A17 17 0 018.37 25zm9.13 4.79l-.14.13L3.45 16l.13-.13a4.92 4.92 0 011.67-1.08l6.63 6.63a4.8 4.8 0 01-1.07 1.7zM15 13h-1.33l.07-1.37c0-.83.08-1.56.13-2.24l1 1 2.39 2.38c-.66.11-1.39.15-2.26.23zm6.45-1l-5.64-5.71-1.08-1.08a6 6 0 011.17-1.63l.1-.08 1 1 6.23 6.23-.07.08A5.77 5.77 0 0121.49 12z" data-name="small_dna copy"/></g></symbol><symbol viewBox="0 0 164.97 164.97" id="dna_big" xmlns="http://www.w3.org/2000/svg"><g data-name="Layer 2"><g data-name="big_dna copy"><path d="M77.74 80.92A5 5 0 1084 77.74a5 5 0 00-6.26 3.18z"/><circle cx="67.81" cy="79.7" r="5"/><path d="M161.28 41a5 5 0 00-3.61.41L123.52 7.3a5 5 0 10-3.11 2.52 4.62 4.62 0 001-.39l34.13 34.13a4.62 4.62 0 00-.39 1 5 5 0 106.13-3.56zM154.91 54.85a5 5 0 00-4.54 0L109.7 14.22a4.48 4.48 0 10-2.11 2.13L148.24 57v.06a5 5 0 106.71-2.22zM98.15 80.35a5 5 0 103.93 5.87 5 5 0 00-3.93-5.87zM113.28 79.17a5 5 0 00-2.63.57L84.09 53.19a3.46 3.46 0 00-.27-2.95A3.5 3.5 0 1082 55.32l26.54 26.53a5.09 5.09 0 00-.56 2 5 5 0 105.32-4.66zM128.48 75.05a5 5 0 00-1.32.48L88.31 36.68a3.49 3.49 0 10-2.31 2.2l.22-.08L125 77.66a4.91 4.91 0 00-.49 3.26 5 5 0 103.93-5.87zM140.65 67.2L97 23.57c0-.1.09-.19.13-.3a4 4 0 10-5.05 2.55 3.9 3.9 0 002.8-.13l43.63 43.64a5 5 0 102.12-2.13zM80.8 70.92a3 3 0 10-4.21-.52 3 3 0 004.21.52zM72.87 139.15a3.9 3.9 0 00-2.8.13L26.44 95.64a5 5 0 10-2.12 2.13L68 141.4c0 .1-.09.19-.13.3a4 4 0 105.05-2.55zM78.88 125.61a2.78 2.78 0 00-.48.18L39.93 87.31a4.91 4.91 0 00.49-3.26 5 5 0 10-3.94 5.87 4.61 4.61 0 001.33-.49l38.47 38.48a4 4 0 102.6-2.3zM83 109.65L56.45 83.12a5.09 5.09 0 00.56-2 5.05 5.05 0 10-2.69 4.09l26.56 26.55a3.46 3.46 0 00.27 3 3.5 3.5 0 101.85-5.11zM84.17 94.05a3 3 0 104.21.51 3 3 0 00-4.21-.51zM57.38 148.62L16.73 108a.43.43 0 000-.07 5 5 0 10-2.17 2.19l40.67 40.67a4.49 4.49 0 102.11-2.13zM44.56 155.15a4.62 4.62 0 00-1 .39L9.43 121.41a4.62 4.62 0 00.39-1 5 5 0 10-2.52 3.11l34.15 34.15a5 5 0 103.11-2.52z"/></g></g></symbol><symbol viewBox="0 0 27 27" id="dna_green" xmlns="http://www.w3.org/2000/svg"><path d="M26.49 6.36a.32.32 0 00-.42.18 9 9 0 01-.71 1.39l-6.59-6.59a9.52 9.52 0 011.39-.71.32.32 0 00.18-.42.32.32 0 00-.41-.21 14.16 14.16 0 00-4.49 3.1c-2 2-2.15 4.33-2.35 8.51L13 13.06c-4.94.28-8.1.57-9.9 2.38A19.6 19.6 0 000 19.9a.32.32 0 00.15.43c.05.014.1.014.15 0a.33.33 0 00.29-.18s.25-.51.66-1.2l6.44 6.43c-.7.41-1.19.66-1.2.66a.33.33 0 00-.15.44.33.33 0 00.43.15 19.56 19.56 0 004.47-3.09c1.62-1.62 2-4.15 2.33-9.19v-.71l1.44-.07c4.18-.2 6.48-.31 8.52-2.35a14.11 14.11 0 003.09-4.49.32.32 0 00-.13-.37zM25 8.58a14.86 14.86 0 01-1.24 1.59L16.53 3a14.86 14.86 0 011.59-1.24L25 8.58zm-6.69 4.17l-2.89-2.83L14 8.45c.054-.83.195-1.65.42-2.45l.86.86 5.46 5.46c-.808.236-1.64.38-2.48.43h.05zM13 14.36c-.06 1.05-.13 2-.21 2.82L9.52 14c1-.1 2.16-.18 3.46-.25l.02.61zm-.32 3.78a15.31 15.31 0 01-.48 2.52L6 14.55a15.87 15.87 0 012.53-.48l4.15 4.07zm-11 .19A17 17 0 013 16.59l7.16 7.16A17 17 0 018.37 25l-6.69-6.67zm9.13 4.79l-.14.13L3.45 16l.13-.13a4.92 4.92 0 011.67-1.08l6.63 6.63a4.8 4.8 0 01-1.07 1.7zM15 13h-1.33l.07-1.37c0-.83.08-1.56.13-2.24l1 1 2.39 2.38c-.66.11-1.39.15-2.26.23zm6.45-1l-5.64-5.71-1.08-1.08a6 6 0 011.17-1.63l.1-.08 1 1 6.23 6.23-.07.08A5.77 5.77 0 0121.49 12h-.04z" fill="#47B100" fill-rule="nonzero"/></symbol><symbol viewBox="0 0 44.5 44.5" id="download-arrow" xmlns="http://www.w3.org/2000/svg"><g fill="none" fill-rule="evenodd" stroke="#47B100"><path stroke-width="3" d="M23.2 0v32"/><path stroke-width="2" d="M23.242 43.011l9.809-10.386H13.433l9.809 10.386z"/></g></symbol><symbol viewBox="0 44.8 47 2.5" id="download-base" xmlns="http://www.w3.org/2000/svg"><path stroke="#47B100" stroke-width="3" d="M.7 45.7H46" fill="none" fill-rule="evenodd"/></symbol><symbol viewBox="0 0 30.53 15.75" id="eye" xmlns="http://www.w3.org/2000/svg"><g data-name="Layer 2"><path d="M30.53 8.14v-.53a34.8 34.8 0 00-5.64-4.38C21.42 1.09 18.19 0 15.27 0a8.11 8.11 0 00-.86.05C7.14.57.3 7.31 0 7.61v.53a29.73 29.73 0 002.81 2.4.3.3 0 00.22.08.37.37 0 00.23-.62c-1.17-.9-2-1.68-2.45-2.07a31.42 31.42 0 019.55-6.16 7.85 7.85 0 000 12.31 24.54 24.54 0 01-4.68-2.37.38.38 0 00-.52.11.37.37 0 00.12.52c3.59 2.3 6.94 3.46 10 3.46a8.11 8.11 0 00.86-.05c7.25-.57 14.09-7.31 14.39-7.61zm-6-4.27a35 35 0 015.23 4A31.64 31.64 0 0120.17 14a7.85 7.85 0 000-12.31 24.5 24.5 0 014.32 2.18zm-16.35 4A7.14 7.14 0 0114.51.79h.75A7.13 7.13 0 0116 15h-.75a7.14 7.14 0 01-7.11-7.12z"/><path d="M15.27 11.38a3.46 3.46 0 003.28-4.68 1.47 1.47 0 01-1 .4A1.5 1.5 0 0116 5.6a1.47 1.47 0 01.4-1 3.5 3.5 0 10-1.17 6.79z"/></g></symbol><symbol viewBox="0 0 182 93" id="eye_big" xmlns="http://www.w3.org/2000/svg"><path d="M181.2 45.1c-10.2-9.8-21.5-18.5-33.5-25.9-.1 0-.1-.1-.2-.1C127.2 6.4 108.1 0 90.8 0 67.4 0 44 12.3 28.6 22.6 11.9 33.7.6 45 .4 45.1c-.2.3-.4.7-.4 1.1 0 .4.2.8.5 1.1 5.2 5 10.8 9.8 16.6 14.3.3.2.6.3.9.3.5 0 .9-.2 1.2-.6.5-.7.4-1.6-.3-2.1-5.3-4-10.4-8.4-15.2-12.9 5.6-5.3 32-29.2 62.5-39-12.9 8.2-21.5 22.6-21.5 39s8.6 30.8 21.6 39C55.9 82 44.9 76.7 33.5 69.4c-.7-.4-1.6-.2-2.1.5-.4.7-.2 1.6.5 2.1 21.4 13.6 41.3 20.5 59 20.5 23.5 0 46.8-12.3 62.3-22.6 16.7-11.1 28-22.4 28.2-22.5.3-.3.4-.7.4-1.1s-.3-.9-.6-1.2zM47.7 46.2c0-23 18.1-41.9 40.8-43.1.8-.1 1.6-.1 2.3-.1C114.6 3 134 22.4 134 46.2c0 23-18.1 41.9-40.8 43.1-.8 0-1.6.1-2.3.1C67 89.3 47.7 70 47.7 46.2zm67.8 38.9c12.9-8.2 21.5-22.6 21.5-39S128.4 15.2 115.4 7c9.8 3.1 20.1 8 30.8 14.6 0 0 .1 0 .1.1 11.3 7.1 22 15.3 31.7 24.4-5.6 5.4-32 29.3-62.5 39z"/><path d="M114.5 46c0-13-10.5-23.5-23.5-23.5S67.5 33 67.5 46 78 69.5 91 69.5 114.5 59 114.5 46zm-44 0c0-11.3 9.2-20.5 20.5-20.5s20.5 9.2 20.5 20.5-9.2 20.5-20.5 20.5S70.5 57.3 70.5 46z"/><path d="M108 46c0-9.4-7.6-17-17-17s-17 7.6-17 17 7.6 17 17 17 17-7.6 17-17zm-25.1 0c0-4.4 3.6-8.1 8.1-8.1 4.4 0 8.1 3.6 8.1 8.1 0 4.4-3.6 8.1-8.1 8.1-4.4 0-8.1-3.7-8.1-8.1z"/></symbol><symbol viewBox="0 0 31 16" id="eye_green" xmlns="http://www.w3.org/2000/svg"><g fill="#47B100" fill-rule="evenodd"><path d="M30.53 8.14v-.53a34.8 34.8 0 00-5.64-4.38C21.42 1.09 18.19 0 15.27 0a8.11 8.11 0 00-.86.05C7.14.57.3 7.31 0 7.61v.53a29.73 29.73 0 002.81 2.4.3.3 0 00.22.08.37.37 0 00.23-.62c-1.17-.9-2-1.68-2.45-2.07a31.42 31.42 0 019.55-6.16 7.85 7.85 0 000 12.31 24.54 24.54 0 01-4.68-2.37.38.38 0 00-.52.11.37.37 0 00.12.52c3.59 2.3 6.94 3.46 10 3.46a8.11 8.11 0 00.86-.05c7.25-.57 14.09-7.31 14.39-7.61zm-6-4.27a35 35 0 015.23 4A31.64 31.64 0 0120.17 14a7.85 7.85 0 000-12.31 24.5 24.5 0 014.32 2.18h.04zm-16.35 4A7.14 7.14 0 0114.51.79h.75A7.13 7.13 0 0116 15h-.75a7.14 7.14 0 01-7.11-7.12l.04-.01z" fill-rule="nonzero"/><path d="M15.27 11.38a3.46 3.46 0 003.28-4.68 1.47 1.47 0 01-1 .4A1.5 1.5 0 0116 5.6a1.47 1.47 0 01.4-1 3.5 3.5 0 10-1.17 6.79l.04-.01z"/></g></symbol><symbol viewBox="0 0 25.48 25.48" id="fingerprint" xmlns="http://www.w3.org/2000/svg"><g data-name="Layer 2"><path d="M.76 12.75A12 12 0 013 5.74a.39.39 0 00.1-.25.43.43 0 00-.1-.29.44.44 0 00-.24-.1.45.45 0 00-.32.16A12.5 12.5 0 000 12.75a13.19 13.19 0 00.32 2.82.38.38 0 00.37.28h.1a.37.37 0 00.28-.44 12.35 12.35 0 01-.31-2.66zM12.74 0a13.19 13.19 0 00-6 1.46v.05a.41.41 0 00-.13.49v.07a.41.41 0 00.48.09 12 12 0 0117.63 10.59.38.38 0 00.38.39.4.4 0 00.38-.39A12.76 12.76 0 0012.74 0z"/><path d="M19.12 4.69a.38.38 0 00-.5.1.41.41 0 000 .51 9.83 9.83 0 013.59 6.92 38.45 38.45 0 01-.67 8.73.36.36 0 00.28.44h.08a.39.39 0 00.37-.3 39.44 39.44 0 00.7-8.94 10.66 10.66 0 00-3.85-7.46zM12.25 3.27a9.41 9.41 0 014.05.65l.16.06.12-.08a.57.57 0 00.18-.44l-.05-.18h-.13a9.75 9.75 0 00-4.38-.72 10.17 10.17 0 00-7.07 3.37 10.28 10.28 0 00-2.59 7.43 22.23 22.23 0 01-.71 5.74.39.39 0 00.28.39h.11a.41.41 0 00.36-.21v-.08a23.19 23.19 0 00.71-5.91 9.5 9.5 0 018.96-10.02zM19.9 18.07a.36.36 0 00-.3.06.31.31 0 00-.14.26 47.49 47.49 0 01-1 5.07.4.4 0 00.32.41h.06a.5.5 0 00.31-.15v-.06a42.44 42.44 0 00.95-5.06.35.35 0 00-.05-.33.33.33 0 00-.15-.2z"/><path d="M20.52 12.32A7.84 7.84 0 0012.3 5a8.42 8.42 0 00-2.37.52.37.37 0 10.25.7 7.17 7.17 0 012.15-.46 7 7 0 017.43 6.61v2.85a.38.38 0 00.76 0c.07-1.39 0-2.32 0-2.72zM5.72 13.16a6.87 6.87 0 012.15-5.48.38.38 0 000-.54.4.4 0 00-.53 0A7.66 7.66 0 005 13.22a25 25 0 01-1.3 8.16.35.35 0 000 .3.37.37 0 00.23.21H4a.36.36 0 00.37-.28 26.06 26.06 0 001.35-8.45zM4 21.66z"/><path d="M17.16 9.82a.41.41 0 00-.47-.07l-.07.05a.36.36 0 00-.06.49 4.68 4.68 0 01.73 2.23 34.85 34.85 0 01-1.67 12 .37.37 0 000 .29.39.39 0 00.24.21h.13a.35.35 0 00.35-.28 36.23 36.23 0 001.72-12.32 5.54 5.54 0 00-.9-2.6zM8.17 13.05a4.55 4.55 0 014.31-4.79 4.49 4.49 0 012 .35.41.41 0 00.31 0 .41.41 0 00.21-.23.39.39 0 00-.21-.5 5 5 0 00-2.36-.41 5.33 5.33 0 00-5 5.62A29.17 29.17 0 015.71 23a.37.37 0 000 .29.35.35 0 00.23.21h.13a.45.45 0 00.22-.06h.08v-.09a28.25 28.25 0 001.8-10.3z"/><path d="M12.56 9.92a2.86 2.86 0 00-2.68 3V14.64a.37.37 0 00.38.38.38.38 0 00.38-.37v-1.77a2.14 2.14 0 012-2.2h.1a2.1 2.1 0 012.1 2 37.43 37.43 0 01-2 12.29.33.33 0 000 .29.39.39 0 00.23.22h.13a.33.33 0 00.35-.27 36.88 36.88 0 002.02-12.61 2.81 2.81 0 00-3.01-2.68zM10.36 17.12a.35.35 0 00-.26-.12.37.37 0 00-.29.06.33.33 0 00-.15.26A31.3 31.3 0 018 24.15a.37.37 0 000 .29.37.37 0 00.23.21h.13a.5.5 0 00.31-.12l.06-.09a31.56 31.56 0 001.72-7 .42.42 0 00-.09-.32zM11.33 23a.33.33 0 00-.33 0 .39.39 0 00-.22.23c-.17.54-.33 1.07-.52 1.57a.37.37 0 000 .29.41.41 0 00.23.22h.14a.34.34 0 00.34-.23c.16-.44.3-.89.44-1.33l.08-.26a.37.37 0 000-.29.35.35 0 00-.16-.2z"/><path d="M13.12 12.78a.37.37 0 00-.38-.38.38.38 0 00-.38.4 33.2 33.2 0 01-.85 7.9.39.39 0 00.33.4h.06a.5.5 0 00.31-.15V20.83a33.74 33.74 0 00.91-8.05z"/></g></symbol><symbol viewBox="0 0 156.5 156.5" id="fingerprint_big" xmlns="http://www.w3.org/2000/svg"><g data-name="Layer 2"><path d="M3.25 78.34a75.22 75.22 0 0114.31-44.08 1.59 1.59 0 00-.22-2.26 1.43 1.43 0 00-1-.41 1.88 1.88 0 00-1.29.59l-.08.08A77.15 77.15 0 000 78.34a80.93 80.93 0 001.94 17.28 1.61 1.61 0 001.59 1.22 1.73 1.73 0 00.47-.02A1.52 1.52 0 005.15 95a76.42 76.42 0 01-1.9-16.66zM78.25 0A80.23 80.23 0 0041.6 9l-.19.13a1.89 1.89 0 00-.49 2.09l.14.2a1.89 1.89 0 002.11.48 75.09 75.09 0 01110.08 66.44 1.57 1.57 0 001.63 1.66 1.69 1.69 0 001.62-1.62A78.38 78.38 0 0078.25 0z"/><path d="M117.33 28.89l-.07-.05a1.56 1.56 0 00-2.06.45 1.73 1.73 0 000 2l.12.12c13.25 11 21.67 27.19 22.51 43.41 0 .22 1.51 22.38-4.18 54.32a1.53 1.53 0 001.16 1.88 1.22 1.22 0 00.32 0 1.6 1.6 0 001.57-1.29c5.9-32.5 4.39-55 4.37-55.23-1.07-17.21-9.91-34.29-23.74-45.61zM75.18 18.8a58.25 58.25 0 0125.46 4.12.91.91 0 001-.11 2.46 2.46 0 00.82-2 1 1 0 00-.64-.83 60.36 60.36 0 00-26.86-4.43 63 63 0 00-59.22 66.54 136.13 136.13 0 01-4.34 35.38v.19a1.69 1.69 0 001.21 1.76h.41a2 2 0 001.67-1l.1-.23a141.09 141.09 0 004.39-36.4 59.68 59.68 0 0156-62.99zM122.53 112a1.54 1.54 0 00-1.3.24 1.39 1.39 0 00-.61 1.1 272.33 272.33 0 01-5.92 31.2v.18a1.69 1.69 0 001.44 1.78h.18a2.15 2.15 0 001.41-.74l.14-.15.05-.2a266.77 266.77 0 005.92-31.41 1.58 1.58 0 00-.22-1.34 1.45 1.45 0 00-1.09-.66z"/><path d="M125.78 75.67a47.87 47.87 0 00-50.2-44.91 50.05 50.05 0 00-14.5 3.18 1.47 1.47 0 00-1 2 1.49 1.49 0 002 1A45.17 45.17 0 0175.67 34a44.48 44.48 0 0146.86 41.72v1.09c.07 2.44.23 8.15-.2 16.56A1.57 1.57 0 00124 95a1.54 1.54 0 001.62-1.41c.44-8.58.27-14.35.2-16.82-.03-.5-.04-.85-.04-1.1zM47.54 46.36a1.62 1.62 0 00-1.15-2.76 1.57 1.57 0 00-1.12.47 47 47 0 00-14.55 37.15c.1 2.41.72 24.34-8.15 51a1.41 1.41 0 000 1.14 1.59 1.59 0 001 .9h.59a1.51 1.51 0 001.58-1.22C34.7 106 34.07 83.46 34 80.91a43.47 43.47 0 0113.54-34.55z"/><path d="M105.24 60.8l-.1-.12a1.83 1.83 0 00-2.09-.31l-.2.14a1.59 1.59 0 00-.23 2.21 29.62 29.62 0 014.55 14.09c1.39 22.19-2.41 49.53-10.42 75a1.47 1.47 0 000 1.13 1.58 1.58 0 001 .9h.58a1.36 1.36 0 001.44-1.14c8.15-26.08 12-53.85 10.66-76.2a33.16 33.16 0 00-5.19-15.7zM49.15 80.22a29 29 0 0127.41-30.49 28.23 28.23 0 0113 2.23 1.82 1.82 0 001.26 0 1.57 1.57 0 00.91-1 1.63 1.63 0 00-.93-2.14 29.83 29.83 0 00-14.3-2.51 32.25 32.25 0 00-30.59 33.77v.34a180.1 180.1 0 01-10.57 61.89 1.41 1.41 0 000 1.19 1.59 1.59 0 001 .9h.59a2.65 2.65 0 001-.25l.26-.14.11-.28c12.4-34.15 10.92-62.33 10.85-63.51z"/><path d="M95.06 77.42a16.8 16.8 0 00-17.9-15.91 17.17 17.17 0 00-15.89 17.88v.74c0 1.48.13 5 0 9.91a1.57 1.57 0 001.62 1.63 1.68 1.68 0 001.62-1.6c.14-5 .06-8.6 0-10.14v-.75a13.91 13.91 0 0112.9-14.42 13.72 13.72 0 0114.4 12.88v.12c.12 3.74.8 37.64-12.5 76.61a1.41 1.41 0 000 1.19 1.59 1.59 0 001 .9h.59a1.36 1.36 0 001.44-1.12c13.82-40.14 12.88-74.05 12.72-77.79zM61.79 105.2a1.57 1.57 0 00-1.3.24 1.37 1.37 0 00-.61 1.11A195.18 195.18 0 0149.3 149.3a1.45 1.45 0 000 1.19 1.61 1.61 0 001 .9h.59a2.07 2.07 0 001.4-.57l.12-.11.05-.16a196.55 196.55 0 0010.64-43.4 1.55 1.55 0 00-.23-1.34 1.52 1.52 0 00-1.08-.61zM69.11 142.47a1.41 1.41 0 00-1.14 0 1.64 1.64 0 00-.93 1.05c-1 3.24-2.07 6.59-3.25 9.8a1.45 1.45 0 000 1.19 1.58 1.58 0 001 .9h.58a1.38 1.38 0 001.43-.92c1-2.68 1.86-5.48 2.71-8.18l.58-1.86a1.47 1.47 0 000-1.13 1.62 1.62 0 00-.98-.85z"/><path d="M79.87 78.51a1.57 1.57 0 00-1.62-1.62 1.59 1.59 0 00-1.62 1.72c.09 2.23.69 22.56-5.22 48.84v.17a1.7 1.7 0 001.44 1.77h.18a2.12 2.12 0 001.41-.74l.15-.15.05-.22a209.1 209.1 0 005.23-49.77z"/></g></symbol><symbol viewBox="0 0 26 26" id="fingerprint_green" xmlns="http://www.w3.org/2000/svg"><g fill="#47B100" fill-rule="evenodd"><path d="M.76 12.75A12 12 0 013 5.74a.39.39 0 00.1-.25.43.43 0 00-.1-.29.44.44 0 00-.24-.1.45.45 0 00-.32.16A12.5 12.5 0 000 12.75c.005.949.112 1.894.32 2.82a.38.38 0 00.37.28h.1a.37.37 0 00.28-.44 12.35 12.35 0 01-.31-2.66zM12.74 0a13.19 13.19 0 00-6 1.46v.05a.41.41 0 00-.13.49v.07a.41.41 0 00.48.09 12 12 0 0117.63 10.59.38.38 0 00.38.39.4.4 0 00.38-.39C25.474 5.715 19.775.011 12.74 0z"/><path d="M19.12 4.69a.38.38 0 00-.5.1.41.41 0 000 .51 9.83 9.83 0 013.59 6.92 38.45 38.45 0 01-.67 8.73.36.36 0 00.28.44h.08a.39.39 0 00.37-.3 39.44 39.44 0 00.7-8.94 10.66 10.66 0 00-3.85-7.46zM12.25 3.27a9.41 9.41 0 014.05.65l.16.06.12-.08a.57.57 0 00.18-.44l-.05-.18h-.13a9.75 9.75 0 00-4.38-.72 10.17 10.17 0 00-7.07 3.37 10.28 10.28 0 00-2.59 7.43 22.23 22.23 0 01-.71 5.74.39.39 0 00.28.39h.11a.41.41 0 00.36-.21v-.08a23.19 23.19 0 00.71-5.91 9.5 9.5 0 018.96-10.02zM19.9 18.07a.36.36 0 00-.3.06.31.31 0 00-.14.26 47.49 47.49 0 01-1 5.07.4.4 0 00.32.41h.06a.5.5 0 00.31-.15v-.06a42.44 42.44 0 00.95-5.06.35.35 0 00-.05-.33.33.33 0 00-.15-.2z"/><path d="M20.52 12.32A7.84 7.84 0 0012.3 5a8.42 8.42 0 00-2.37.52.372.372 0 00.25.7 7.17 7.17 0 012.15-.46 7 7 0 017.43 6.61v2.85a.38.38 0 00.76 0c.07-1.39 0-2.32 0-2.72v-.18zM5.72 13.16a6.87 6.87 0 012.15-5.48.38.38 0 000-.54.4.4 0 00-.53 0A7.66 7.66 0 005 13.22a25 25 0 01-1.3 8.16.35.35 0 000 .3.37.37 0 00.23.21H4a.36.36 0 00.37-.28 26.06 26.06 0 001.35-8.45z"/><path d="M17.16 9.82a.41.41 0 00-.47-.07l-.07.05a.36.36 0 00-.06.49c.429.67.68 1.437.73 2.23a34.85 34.85 0 01-1.67 12 .37.37 0 000 .29.39.39 0 00.24.21h.13a.35.35 0 00.35-.28 36.23 36.23 0 001.72-12.32 5.54 5.54 0 00-.9-2.6zM8.17 13.05a4.55 4.55 0 016.31-4.44c.1.04.21.04.31 0a.41.41 0 00.21-.23.39.39 0 00-.21-.5 5 5 0 00-2.36-.41 5.33 5.33 0 00-5 5.62A29.17 29.17 0 015.71 23a.37.37 0 000 .29.35.35 0 00.23.21h.13a.45.45 0 00.22-.06h.08v-.09a28.25 28.25 0 001.8-10.3z"/><path d="M12.56 9.92a2.86 2.86 0 00-2.68 3V14.64a.37.37 0 00.38.38.38.38 0 00.38-.37v-1.77a2.14 2.14 0 012-2.2h.1a2.1 2.1 0 012.1 2 37.43 37.43 0 01-2 12.29.33.33 0 000 .29.39.39 0 00.23.22h.13a.33.33 0 00.35-.27 36.88 36.88 0 002.02-12.61 2.81 2.81 0 00-3.01-2.68zM10.36 17.12a.35.35 0 00-.26-.12.37.37 0 00-.29.06.33.33 0 00-.15.26A31.3 31.3 0 018 24.15a.37.37 0 00.23.5h.13a.5.5 0 00.31-.12l.06-.09a31.56 31.56 0 001.72-7 .42.42 0 00-.09-.32zM11.33 23a.33.33 0 00-.33 0 .39.39 0 00-.22.23c-.17.54-.33 1.07-.52 1.57a.37.37 0 000 .29.41.41 0 00.23.22h.14a.34.34 0 00.34-.23c.16-.44.3-.89.44-1.33l.08-.26a.37.37 0 000-.29.35.35 0 00-.16-.2z"/><path d="M13.12 12.78a.37.37 0 00-.38-.38.38.38 0 00-.38.4 33.2 33.2 0 01-.85 7.9.39.39 0 00.33.4h.06a.5.5 0 00.31-.15V20.83a33.74 33.74 0 00.91-8.05z"/></g></symbol><symbol fill="none" viewBox="0 0 79 80" id="item-icon-1" xmlns="http://www.w3.org/2000/svg"><g clip-path="url(#bcclip0_395_691)"><path d="M78 19.37V79H1v-4.938" stroke="#47B100" stroke-width="2" stroke-miterlimit="10" stroke-linecap="round"/><path d="M1 79V68h12M13.001 68v-9h14M27.001 59V49h12M39.001 49V39h13M52.001 39V29h14M66.001 29V19h12" stroke="#47B100" stroke-width="2" stroke-miterlimit="10" stroke-linecap="round"/><path fill="#47B100" d="M71 0h2v19h-2zM63 3.464L71 0v7l-8-3.536z"/></g><defs><clipPath id="bcclip0_395_691"><path fill="#fff" d="M0 0h79v80H0z"/></clipPath></defs></symbol><symbol fill="none" viewBox="0 0 107 81" id="item-icon-2" xmlns="http://www.w3.org/2000/svg"><path d="M54 59l1.47 2.68 3.285.43-2.377 2.085.56 2.946L54 65.75l-2.939 1.39.561-2.945-2.377-2.086 3.286-.43L54 59zM74 59l1.47 2.68 3.285.43-2.377 2.085.56 2.946L74 65.75l-2.939 1.39.561-2.945-2.377-2.086 3.285-.43L74 59zM34 59l1.47 2.68 3.285.43-2.377 2.085.56 2.946L34 65.75l-2.939 1.39.561-2.945-2.377-2.086 3.286-.43L34 59z" stroke="#47B100" stroke-width="2" stroke-miterlimit="10" stroke-linecap="round"/><path stroke="#47B100" stroke-width="2" stroke-miterlimit="10" stroke-linecap="round" d="M19 54h70v19H19z"/><path d="M17.834 59.978H6.859l6.86 9.518-6.86 9.516H28V73M89.853 59.978h10.974l-6.859 9.518 6.859 9.516H80V73M78 53c0-14.36-10.969-26-24.5-26S29 38.64 29 53" stroke="#47B100" stroke-width="2" stroke-miterlimit="10" stroke-linecap="round"/><ellipse cx="53.5" cy="12.556" rx="11.66" ry="11.556" stroke="#47B100" stroke-width="2" stroke-miterlimit="10" stroke-linecap="round"/></symbol><symbol fill="none" viewBox="0 0 80 80" id="item-icon-3" xmlns="http://www.w3.org/2000/svg"><circle cx="40" cy="40" r="38" stroke="#47B100" stroke-width="2" stroke-miterlimit="10" stroke-linecap="round"/><path d="M40 20l4.49 13.82h14.531l-11.756 8.54 4.49 13.82L40 47.64l-11.756 8.54 4.49-13.82-11.755-8.54h14.53L40 20z" stroke="#47B100" stroke-width="2" stroke-miterlimit="10" stroke-linecap="round"/></symbol><symbol fill="none" viewBox="0 0 70 121" id="job-1" xmlns="http://www.w3.org/2000/svg"><path stroke="#47B100" stroke-width="2" stroke-miterlimit="10" d="M6 26h58v94H6z"/><path stroke="#47B100" stroke-width="2" stroke-miterlimit="10" d="M13 79h44v12H13zM13 64h44v12H13zM13 49h44v12H13zM13 34h44v12H13zM17 99h36v3H17zM21 102h28v18H21zM1 17h68v9H1zM15 13h40v4H15zM32 13V4a3 3 0 013-3v0a3 3 0 013 3v9h-6zM36 101.86V120"/></symbol><symbol fill="none" viewBox="0 0 102 103" id="job-2" xmlns="http://www.w3.org/2000/svg"><path d="M1.29 102c13.294 0 40.134-.423 60.693-28.324 8.092-10.982 10.404-20.809 10.404-47.398h-6.936L80.48 2l14.45 24.277h-7.514v31.214M62.236 101.918c6.683-3.386 11.655-6.046 16.51-12.635 5.868-7.964 7.559-13.008 8.67-26.59M87.416 62.694v38.728" stroke="#47B100" stroke-width="2" stroke-miterlimit="10" stroke-linecap="round"/><path d="M100.711 25.7V102H1.289" stroke="#47B100" stroke-width="2" stroke-miterlimit="10" stroke-linecap="round"/><path d="M18.052 89.861V66.74H3.023v31.214M44.642 78.3V55.18h-15.03v31.213M71.231 43.618H56.202v31.214" stroke="#47B100" stroke-width="2" stroke-miterlimit="10" stroke-linecap="round"/></symbol><symbol fill="none" viewBox="0 0 112 100" id="job-3" xmlns="http://www.w3.org/2000/svg"><path d="M1.783 76.71v-5.42h96.934c6.351 0 11.5 5.148 11.5 11.5v4.71c0 6.351-5.149 11.5-11.5 11.5H1.783v-5.723" stroke="#47B100" stroke-width="2" stroke-linecap="round"/><path d="M1.783 77.313h93.374a7.831 7.831 0 017.831 7.832v0a7.831 7.831 0 01-7.831 7.83H1.783M12.422 78.313v13.663M94.759 85H12.422M101.783 66.76v4.579H21.717c-6.351 0-11.5-5.149-11.5-11.5v-.4c0-6.352 5.149-11.5 11.5-11.5h80.066v4.832" stroke="#47B100" stroke-width="2" stroke-linecap="round"/><path d="M101.783 66.252H22.934a6.613 6.613 0 01-6.613-6.613v0a6.613 6.613 0 016.613-6.614h78.849M92.644 65.252V54.026M23.426 60h69.218M57.205 1.205l37.35 14.458-39.76 14.457-37.35-14.457 39.76-14.458z" stroke="#47B100" stroke-width="2" stroke-linecap="round"/><path d="M31.904 21.687v16.867s4.819 4.82 24.096 4.82 24.096-4.82 24.096-4.82V21.687M58.205 15.663h38.554v6.024" stroke="#47B100" stroke-width="2" stroke-linecap="round"/><rect x="93.144" y="21.687" width="7.229" height="14.458" rx="3.614" stroke="#47B100" stroke-width="2" stroke-linecap="round"/></symbol><symbol fill="none" viewBox="0 0 104 106" id="job-4" xmlns="http://www.w3.org/2000/svg"><path d="M28.208 81.618l8.793 7.035s5.276 3.517 7.913 0c2.638-3.518-.879-7.035-.879-7.035l-15.827-12.31c-3.517-2.637-7.21-3.692-11.43-4.396-4.22-.703-11.724-.293-14.948 0M77.402 26.038l-8.437-7.456s-5.097-3.772-7.904-.388c-2.807 3.384.533 7.069.533 7.069L76.8 38.333c3.383 2.807 7.02 4.042 11.201 4.95 4.181.91 11.695.868 14.93.733" stroke="#47B100" stroke-width="2" stroke-miterlimit="10" stroke-linecap="round"/><path d="M7.983 87.773c10.56 1.24 24.695 11.504 28.122 14.066 3.534 2.64 6.317 2.93 10.559 1.776l20.035-5.468s4.567-1.97 3.413-6.213c-1.153-4.242-7.354-2.92-7.354-2.92s-9.06 2.273-12.577 3.153C46.664 93.046 44 90 44 90M97.905 20.881c-10.486-1.756-24.101-12.7-27.4-15.426-3.4-2.81-6.164-3.235-10.458-2.291l-20.28 4.48s-4.657 1.745-3.713 6.039c.945 4.294 7.203 3.277 7.203 3.277s9.16-1.828 12.717-2.534C59.529 13.72 62 17 62 17M84.481 51.723c0 17.482-14.171 31.654-31.653 31.654M21.174 51.723c0-17.481 14.172-31.653 31.654-31.653" stroke="#47B100" stroke-width="2" stroke-miterlimit="10" stroke-linecap="round"/><circle cx="53" cy="53" stroke="#47B100" stroke-width="2" stroke-miterlimit="10" stroke-linecap="round" r="21"/><path d="M48.5 41v-1h-1v1h1zm9 0h1v-1h-1v1zm-9 7.5v1h1v-1h-1zm-7.5 0v-1h-1v1h1zm0 9h-1v1h1v-1zm7.5 0h1v-1h-1v1zm0 7.5h-1v1h1v-1zm9 0v1h1v-1h-1zm0-7.5v-1h-1v1h1zm7.5 0v1h1v-1h-1zm0-9h1v-1h-1v1zm-7.5 0h-1v1h1v-1zm-9-6.5h9v-2h-9v2zm1 6.5V41h-2v7.5h2zm-8.5 1h7.5v-2H41v2zm1 8v-9h-2v9h2zm6.5-1H41v2h7.5v-2zm1 8.5v-7.5h-2V65h2zm8-1h-9v2h9v-2zm-1-6.5V65h2v-7.5h-2zm8.5-1h-7.5v2H65v-2zm-1-8v9h2v-9h-2zm-6.5 1H65v-2h-7.5v2zm-1-8.5v7.5h2V41h-2z" fill="#47B100"/></symbol><symbol fill="none" viewBox="0 0 94 79" id="job-5" xmlns="http://www.w3.org/2000/svg"><rect x="1" y="9" width="92" height="69" rx="4" stroke="#47B100" stroke-width="2" stroke-miterlimit="10" stroke-linecap="round"/><path stroke="#47B100" stroke-width="2" stroke-miterlimit="10" stroke-linecap="round" d="M1 19h91"/><rect x="18" y="1.5" width="8" height="14" rx="4" fill="#fff" stroke="#47B100" stroke-width="2" stroke-miterlimit="10" stroke-linecap="round"/><rect x="43" y="1.5" width="8" height="14" rx="4" fill="#fff" stroke="#47B100" stroke-width="2" stroke-miterlimit="10" stroke-linecap="round"/><rect x="68" y="1.5" width="8" height="14" rx="4" fill="#fff" stroke="#47B100" stroke-width="2" stroke-miterlimit="10" stroke-linecap="round"/><circle cx="37" cy="55" r="7" stroke="#47B100" stroke-width="2" stroke-miterlimit="10" stroke-linecap="round"/><circle cx="17" cy="55" r="7" stroke="#47B100" stroke-width="2" stroke-miterlimit="10" stroke-linecap="round"/><circle cx="57" cy="55" r="7" fill="#47B100" stroke="#47B100" stroke-width="2" stroke-miterlimit="10" stroke-linecap="round"/><circle cx="77" cy="55" r="7" fill="#47B100" stroke="#47B100" stroke-width="2" stroke-miterlimit="10" stroke-linecap="round"/><path d="M33.986 54.94l2.387 2.387 3.977-3.977" stroke="#47B100" stroke-width="2" stroke-miterlimit="10" stroke-linecap="round"/><circle cx="27" cy="37" r="7" stroke="#47B100" stroke-width="2" stroke-miterlimit="10" stroke-linecap="round"/><circle cx="67" cy="37" r="7" stroke="#47B100" stroke-width="2" stroke-miterlimit="10" stroke-linecap="round"/><circle cx="47" cy="37" r="7" stroke="#47B100" stroke-width="2" stroke-miterlimit="10" stroke-linecap="round"/><path d="M23.986 36.94l2.387 2.387 3.977-3.977M63.986 36.94l2.387 2.387 3.977-3.977" stroke="#47B100" stroke-width="2" stroke-miterlimit="10" stroke-linecap="round"/></symbol><symbol fill="none" viewBox="0 0 110 102" id="job-6" xmlns="http://www.w3.org/2000/svg"><path d="M10.94 101c10.101-4.647 31.879-16.758 34.303-25 1.545-5.252-1.18-16.225-.97-29 .12-7.275 2.498-16.24 2.425-21.151 0-2.349-1.955-3.349-3.955-2.349" stroke="#47B100" stroke-width="2" stroke-miterlimit="10" stroke-linecap="round"/><path d="M40.031 44.03c.212-12.03 3.106-21.288 3.712-25.53.6-4.2-.076-6.59-3.712-7.197M20.743 34.5L25.79 8.488c.562-2.389 1.548-4.754 4.482-3.98 3.345.881 2.302 4.368 2.233 5.575l-5.482 27.433" stroke="#47B100" stroke-width="2" stroke-miterlimit="10" stroke-linecap="round"/><path d="M32.789 68.879c.606-2.02.408-7.024-2.546-10.379-4.121-4.682-7.5-5.47-7.5-8.5 0-3.03.349-3.5.955-7.182.59-3.588-.212-7.606-4.455-8.818l-3-1-1.666 18.909c-1.212 2.222-3.394 7.879-2.425 12.727 1.213 6.06 3.637 10.303 7.88 13.94M1.243 81c2.626-1.212 6.667-3.03 9.091-5.454 2-2 3.03-5.051 3.03-6.061M32.743 7c.657-2.384 1.03-6.5 5.5-5.5 3 .671 2.5 4 2.197 5.215 0 0-2.009 7.887-3.353 15.086C35.743 29 34.743 39 34.743 39M99.06 101C88.959 96.353 67.18 84.242 64.757 76c-1.545-5.252 1.18-16.225.97-29-.12-7.275-2.498-16.24-2.425-21.151 0-2.349 1.955-3.349 3.955-2.349" stroke="#47B100" stroke-width="2" stroke-miterlimit="10" stroke-linecap="round"/><path d="M69.969 44.03C69.757 32 66.863 22.742 66.257 18.5c-.6-4.2.076-6.59 3.712-7.197M89.257 34.5L84.21 8.488c-.562-2.389-1.548-4.754-4.482-3.98-3.345.881-2.302 4.368-2.233 5.575l5.482 27.433" stroke="#47B100" stroke-width="2" stroke-miterlimit="10" stroke-linecap="round"/><path d="M77.211 68.879c-.606-2.02-.408-7.024 2.546-10.379 4.121-4.682 7.5-5.47 7.5-8.5 0-3.03-.349-3.5-.955-7.182-.59-3.588.212-7.606 4.455-8.818l3-1 1.666 18.909c1.212 2.222 3.394 7.879 2.424 12.727-1.212 6.06-3.636 10.303-7.878 13.94M108.757 81c-2.626-1.212-6.667-3.03-9.091-5.454-2-2-3.03-5.051-3.03-6.061M77.257 7c-.657-2.384-1.03-6.5-5.5-5.5-3 .671-2.5 4-2.197 5.215 0 0 2.009 7.887 3.353 15.086C74.257 29 75.257 39 75.257 39" stroke="#47B100" stroke-width="2" stroke-miterlimit="10" stroke-linecap="round"/></symbol><symbol fill="none" viewBox="0 0 131 131" id="logo-academy" xmlns="http://www.w3.org/2000/svg"><path d="M34.437 118.457l4.133-9.703h1.9l4.133 9.703h-2.11l-.946-2.233h-4.08l-.954 2.233h-2.076zm3.65-3.872h2.827l-1.404-3.35-1.423 3.35zM46.281 117.641c-.731-.673-1.103-1.554-1.103-2.645 0-1.09.372-1.958 1.103-2.605.745-.659 1.626-.992 2.658-.992.757 0 1.436.15 2.037.457v1.652c-.594-.275-1.182-.412-1.75-.412-.607 0-1.117.177-1.528.536-.398.346-.607.816-.607 1.377 0 .562.209 1.032.62 1.391.412.359.92.536 1.515.536.705 0 1.325-.151 1.86-.47v1.651c-.645.347-1.364.51-2.173.51-1.019.006-1.9-.327-2.632-.986zM59.693 116.87v1.417c-.248.19-.594.288-1.045.288-.784 0-1.293-.288-1.554-.882-.607.62-1.39.94-2.37.94-1.489 0-2.534-.907-2.534-2.298 0-.731.262-1.293.797-1.678s1.169-.581 1.913-.581c.77 0 1.43.137 1.985.424v-.209c0-.868-.607-1.293-1.822-1.293-.73 0-1.43.19-2.083.582v-1.626c.706-.372 1.541-.549 2.547-.549.98 0 1.776.235 2.37.719.607.483.908 1.142.908 1.984v2.331c0 .347.163.523.483.523a.946.946 0 00.405-.092zm-2.814-1.129c-.399-.261-.869-.398-1.437-.398-.83 0-1.352.333-1.352.894 0 .607.51.895 1.228.895.673 0 1.201-.235 1.554-.706v-.685h.007zM61.495 117.602c-.608-.706-.908-1.554-.908-2.593 0-1.018.3-1.873.907-2.566.62-.705 1.391-1.044 2.331-1.044.98 0 1.724.346 2.26 1.018v-3.61h1.946v9.643h-1.946v-.842c-.51.673-1.267 1.019-2.26 1.019-.94.006-1.71-.34-2.33-1.025zm4.59-1.698v-1.789a1.937 1.937 0 00-1.711-1.019c-.535 0-.992.177-1.338.549a1.935 1.935 0 00-.523 1.364c0 .549.176 1.006.523 1.378.346.372.796.549 1.338.549.757 0 1.39-.438 1.71-1.032zM70.57 117.641c-.731-.66-1.103-1.541-1.103-2.632 0-1.018.333-1.873.992-2.566.66-.705 1.528-1.044 2.593-1.044 1.005 0 1.788.359 2.383 1.057.594.699.894 1.554.894 2.58v.509H71.4c.21.94 1.09 1.436 2.299 1.436.77 0 1.502-.209 2.207-.607v1.554c-.62.47-1.489.705-2.618.705-1.078 0-1.985-.333-2.717-.992zm3.846-3.337c-.04-.757-.581-1.377-1.45-1.377-.88 0-1.475.568-1.573 1.377h3.023zM77.818 118.457v-6.875h1.946v.842c.51-.673 1.215-1.019 2.096-1.019 1.032 0 1.848.523 2.135 1.169.457-.672 1.378-1.169 2.37-1.169 1.476 0 2.456.954 2.456 2.756v4.296h-1.946v-3.859c0-.953-.386-1.417-1.143-1.417-.594 0-1.169.399-1.436.934v4.342h-1.94v-3.859c0-.953-.385-1.417-1.142-1.417-.568 0-1.17.399-1.45.908v4.368h-1.946zM90.093 121.017v-1.698c.32.176.672.274 1.045.274.705 0 1.13-.424 1.527-1.378l-2.964-6.64h2.096l1.822 4.518 1.724-4.518h2.05l-3.186 7.594c-.608 1.417-1.515 2.122-2.743 2.122-.555 0-1.025-.098-1.371-.274zM23.466 98.64a7.342 7.342 0 001.92 1.659c.745.45 1.58.672 2.514.672.418 0 .816-.065 1.208-.196a2.928 2.928 0 001.698-1.417c.17-.326.26-.698.26-1.116 0-.692-.215-1.247-.633-1.672-.424-.424-.953-.79-1.58-1.103a22.726 22.726 0 00-2.037-.882 10.233 10.233 0 01-1.998-1.012 5.841 5.841 0 01-1.645-1.606c-.444-.64-.66-1.436-.66-2.39 0-.66.137-1.28.412-1.867a4.668 4.668 0 011.155-1.541 5.51 5.51 0 011.737-1.038 6.24 6.24 0 012.194-.379c.568 0 1.104.059 1.593.17.49.11.94.261 1.352.437a8.08 8.08 0 011.933 1.208l-1.528 1.894c-.986-.83-2.064-1.247-3.246-1.247-.378 0-.75.052-1.103.156a3.269 3.269 0 00-.96.464 2.392 2.392 0 00-.685.764c-.177.3-.262.653-.262 1.051 0 .568.21 1.045.634 1.424a6.74 6.74 0 001.58 1.025c.633.3 1.306.6 2.024.894.718.294 1.371.634 1.959 1.012.313.21.607.438.881.699.275.261.53.561.751.894.222.34.405.719.53 1.143.123.425.195.895.195 1.41 0 .797-.15 1.515-.444 2.168a5.017 5.017 0 01-1.195 1.659 5.278 5.278 0 01-1.776 1.064 6.47 6.47 0 01-2.22.379 8.067 8.067 0 01-3.5-.777 8.327 8.327 0 01-2.853-2.259l1.796-1.744zM43.257 103.185c-.242.085-.536.15-.882.196a8.04 8.04 0 01-1.038.065c-.777 0-1.45-.124-2.011-.379a4.061 4.061 0 01-1.437-1.051 3.31 3.31 0 01-.763-1.424 6.91 6.91 0 01-.222-1.815v-5.576h-3.115v-2.207h3.115v-3.369h2.468v3.37h3.891V93.2h-3.891v5.707c0 .326.02.62.065.881.046.262.144.484.3.673.17.209.412.366.725.477.314.111.633.169.96.169.19 0 .411-.013.672-.039a4.08 4.08 0 00.673-.117l.49 2.233zM54.41 94.8a4.626 4.626 0 00-1.463-1.246 4.115 4.115 0 00-2.011-.496c-.588 0-1.123.11-1.607.326-.483.215-.894.51-1.234.881-.34.373-.6.803-.79 1.287-.19.483-.287.992-.287 1.528a3.971 3.971 0 001.143 2.827 4.099 4.099 0 002.905 1.195c.62 0 1.234-.15 1.828-.457a4.277 4.277 0 001.515-1.287v-4.557zm.078 7.268c-.503.451-1.071.79-1.711 1.025a5.88 5.88 0 01-2.05.346 6.008 6.008 0 01-1.633-.222 5.86 5.86 0 01-1.43-.581 6.434 6.434 0 01-2.259-2.272c-.574-.96-.855-2.05-.855-3.278 0-1.227.287-2.324.868-3.297a6.511 6.511 0 012.273-2.286c.41-.241.874-.43 1.37-.568a6.329 6.329 0 013.617.117 5.282 5.282 0 011.803 1.052v-1.116h2.39v12.19h-2.39v-1.11h.007zM67.35 93.168a3.684 3.684 0 00-.96-.104c-.64 0-1.26.196-1.867.581a4.368 4.368 0 00-1.43 1.463v8.064h-2.461v-12.19h2.39v1.403c.293-.411.75-.797 1.37-1.143.621-.346 1.385-.522 2.286-.522.137 0 .3.007.477.013.183.007.34.033.476.065l-.28 2.37zM72.43 84.765H69.97v18.413h2.461V84.765zM76.198 90.988h2.462v12.19h-2.462v-12.19zm-.391-4.33c0-.45.156-.835.463-1.155.314-.32.692-.477 1.143-.477.45 0 .836.157 1.156.477.32.32.476.705.476 1.156 0 .45-.157.829-.476 1.142-.32.314-.706.47-1.156.47-.45 0-.83-.156-1.143-.47a1.572 1.572 0 01-.463-1.142zM84.804 92.156c.326-.313.803-.626 1.417-.946.614-.32 1.358-.477 2.24-.477.9 0 1.736.196 2.5.581.77.392 1.41.914 1.933 1.567a5.22 5.22 0 01.894 1.75c.196.666.3 1.528.3 2.58v5.967h-2.46V97.08c0-.777-.066-1.378-.197-1.79-.13-.41-.307-.763-.529-1.038a3.154 3.154 0 00-1.103-.868 3.2 3.2 0 00-1.417-.326c-.816 0-1.508.176-2.09.528a5.423 5.423 0 00-1.416 1.208v8.378h-2.462v-12.19h2.39v1.174zM97.595 84.765v18.42h2.461v-5.968l6.047 5.968h3.29l-6.875-6.693 6.098-5.498h-3.48l-5.08 4.669V84.765h-2.461z" fill="#fff"/><path d="M67.448 9.141a3.535 3.535 0 00-4.995 0 3.535 3.535 0 000 4.995l4.995 4.995v15.162l23.493 23.492v-25.15L67.448 9.14z" fill="url(#blpaint0_linear_493_27)"/><path d="M67.116 11.041a3.535 3.535 0 00-4.995 0c-1.378 1.378.11 2.873 1.488 4.25l3.507 3.26v17.648l22.317 22.318V33.359L67.116 11.04z" fill="#FCFCFC"/><path d="M61.428 11.714l-.006-.007V36.86s-.066 1.332 1.031 2.429L85.946 62.78V37.629L62.453 14.136a3.534 3.534 0 01-1.025-2.422z" fill="url(#blpaint1_linear_493_27)"/><path d="M55.637 17.577a3.535 3.535 0 00-4.995 0 3.535 3.535 0 000 4.995l4.995 4.995V42.73L79.13 66.222V41.07L55.637 17.577z" fill="url(#blpaint2_linear_493_27)"/><path d="M55.304 19.477a3.535 3.535 0 00-4.995 0c-1.377 1.378.111 2.873 1.489 4.25l3.506 3.26v17.648l22.318 22.318V41.795L55.304 19.477z" fill="#FCFCFC"/><path d="M49.617 20.15l-.007-.007v25.152s-.065 1.332 1.032 2.429l23.493 23.492v-25.15L50.642 22.571a3.534 3.534 0 01-1.025-2.422z" fill="url(#blpaint3_linear_493_27)"/><path d="M43.825 26.013a3.535 3.535 0 00-4.995 0 3.535 3.535 0 000 4.995l4.995 4.995v15.162l23.493 23.492v-25.15L43.825 26.012z" fill="url(#blpaint4_linear_493_27)"/><path d="M43.492 27.913a3.535 3.535 0 00-4.995 0c-1.378 1.378.11 2.873 1.488 4.25l3.507 3.26V53.07L65.809 75.39V50.23L43.492 27.913z" fill="#FCFCFC"/><path d="M37.805 28.586l-.006-.007v25.152s-.066 1.332 1.031 2.429l23.493 23.493V54.5L38.83 31.008a3.534 3.534 0 01-1.025-2.422z" fill="url(#blpaint5_linear_493_27)"/><defs><linearGradient id="blpaint0_linear_493_27" x1="61.42" y1="32.947" x2="90.942" y2="32.947" gradientUnits="userSpaceOnUse"><stop stop-color="#0F0"/><stop offset=".999" stop-color="#00643E"/></linearGradient><linearGradient id="blpaint1_linear_493_27" x1="61.422" y1="37.244" x2="85.947" y2="37.244" gradientUnits="userSpaceOnUse"><stop stop-color="#0F0"/><stop offset=".999" stop-color="#00643E"/></linearGradient><linearGradient id="blpaint2_linear_493_27" x1="49.608" y1="41.384" x2="79.131" y2="41.384" gradientUnits="userSpaceOnUse"><stop stop-color="#0F0"/><stop offset=".999" stop-color="#00643E"/></linearGradient><linearGradient id="blpaint3_linear_493_27" x1="49.611" y1="45.68" x2="74.136" y2="45.68" gradientUnits="userSpaceOnUse"><stop stop-color="#0F0"/><stop offset=".999" stop-color="#00643E"/></linearGradient><linearGradient id="blpaint4_linear_493_27" x1="37.797" y1="49.821" x2="67.319" y2="49.821" gradientUnits="userSpaceOnUse"><stop stop-color="#0F0"/><stop offset=".999" stop-color="#00643E"/></linearGradient><linearGradient id="blpaint5_linear_493_27" x1="37.8" y1="54.117" x2="62.325" y2="54.117" gradientUnits="userSpaceOnUse"><stop stop-color="#0F0"/><stop offset=".999" stop-color="#00643E"/></linearGradient></defs></symbol><symbol viewBox="0 0 61.9 56.6" id="logo-black" xmlns="http://www.w3.org/2000/svg"><g fill="#080200"><path d="M51.3 53.8l-1.2-.2H29l-.3 3h22.6v-2.8z"/><path d="M28.9 56.6l33-20.7-1.9-2.7-.8.5-31.3 19.6 1 3.3zM46.5.8l-.3.9-13 39.6 3.2 1L49.8 1.5 46.5.8zM16.7 7.5l-3.1 1.4 1.1 1.9 14.1 25.4 3-1.6L16.7 7.5zm-14 17.4L0 26.7l10.6 20.1 3-1.5-9.8-18.6-1.1-1.8z"/><path d="M52.8 53.4L35.4 39.2l-2.2 2.4 18.4 15 1.2-3.2zM2.3 24.1L0 26.8l22.2 7.9 1.2-3.1-21.1-7.5z"/><path d="M47 0L19.6 33.3l2.5 2.1L49.8 1.7 47 0zM13.2 8.2L9.8 46.5l3.3.3 3.5-39.2-3.4.6zm47.8 25H28.7v3h33.2l-.9-3z"/></g></symbol><symbol viewBox="0 0 162.1 148" id="logo-color-on-black" xmlns="http://www.w3.org/2000/svg"><path fill="#fff" d="M134.8 139.9l-3.1-.5H76.8l-.9 8.6h58.9z"/><path fill="#006241" d="M75.9 148l86.2-53.5-4.9-7.1-2.1 1.3-81.6 50.7z"/><path fill="#0f0" d="M121.6 2.7l-.8 2.3-33.3 103.4 8.2 2.6L130 4.5z"/><path fill="#fff" d="M44.6 20.2l-7.9 3.5 2.7 4.9 36 65.9 7.6-4.1zM6.9 66L0 70.7l27.2 52 7.6-4-25.1-48z"/><path fill="#0f0" d="M138 139.4L93.2 102l-5.7 6.4 47.3 39.6z"/><path fill="#006241" d="M6 63.7l-6 6.9 57.2 20.9 3.1-8z"/><path fill="#006241" d="M122.4 0L50.6 86l6.6 5.5 72.7-87z"/><path fill="#0f0" d="M35.8 22l-8.7 100.7 8.6.8 8.9-103.3z"/><path fill="#fff" d="M159.7 85.9H75.4v8.6h86.7z"/></symbol><symbol viewBox="0 0 162.1 148" id="logo-color-on-white" xmlns="http://www.w3.org/2000/svg"><path d="M134.8 139.9l-3.1-.5H76.8l-.9 8.6h58.9v-8.1z" fill="#03a54f"/><path d="M75.9 148l86.2-53.5-5-7-2.1 1.3-81.6 50.7 2.5 8.5z" fill="#006241"/><path d="M121.6 2.7l-.8 2.3-33.3 103.4 8.2 2.6L130 4.5l-8.4-1.8z" fill="#8dbf43"/><path d="M44.6 20.2l-7.9 3.5 2.7 4.9 36 65.9 7.6-4.1-38.4-70.2zM6.9 66L0 70.7l27.2 52 7.6-4-25-48L6.9 66z" fill="#03a54f"/><path d="M138 139.4L93.2 102l-5.7 6.4 47.3 39.6 3.2-8.6z" fill="#8dbf43"/><path d="M6 63.7l-6 7 57.2 20.9 3.1-8.1L6 63.7z" fill="#006241"/><path d="M122.4 0L50.6 86l6.6 5.5 72.7-87.1-7.5-4.4z" fill="#006241"/><path d="M35.8 22l-8.6 100.7 8.6.7 8.9-103.3-8.9 1.9z" fill="#8dbf43"/><path d="M159.7 85.9H75.4v8.6h86.7l-2.4-8.6z" fill="#03a54f"/></symbol><symbol viewBox="0 0 44 40" id="logo-symbol" xmlns="http://www.w3.org/2000/svg"><g fill="#fff"><path d="M37.184 37.572H19.832l.662 2.315h15.842z"/><path d="M20.494 39.885l23.188-14.412-.652-2.319-23.198 14.418zM33.006.03l-9.401 29.195 2.2.71 9.236-28.682zM12.064 5.466L9.7 5.965 20.357 25.49l2.029-1.11zM1.691 17.179L.064 19.06 7.37 33.076l2.05-1.07z"/><path d="M37.18 37.584L25.137 27.513l-1.546 1.72 12.742 10.659zm-35.494-20.4L.068 19.057l15.414 5.634.793-2.175z"/><path d="M33.005.03l-19.33 23.175 1.775 1.482 19.562-23.45zM9.688 5.968L7.362 33.09l2.303.198 2.387-27.82zm33.342 17.19H20.347v2.315h23.335z"/></g></symbol><symbol viewBox="0 0 43.6 39.9" id="logo-white" xmlns="http://www.w3.org/2000/svg"><g fill="#fff"><path d="M37.1 37.5H19.8l.7 2.3h15.8l.8-2.3z"/><path d="M20.4 39.9l23.2-14.4-.6-2.4-23.2 14.4.6 2.4zM32.9 0l-9.4 29.2 2.2.7L35 1.2 32.9 0zM12 5.4l-2.4.5 10.7 19.5 2-1.1L12 5.4zM1.6 17.1L0 19l7.3 14 2.1-1-7.8-14.9z"/><path d="M37.1 37.6l-12-10.1-1.5 1.7 12.7 10.7.8-2.3zM1.6 17.2L0 19l15.4 5.6.8-2.2-14.6-5.2z"/><path d="M32.9 0L13.6 23.2l1.8 1.5L34.9 1.2l-2-1.2zM9.6 5.9L7.3 33.1l2.3.2L12 5.4l-2.4.5zM43 23.1H20.3v2.3h23.3l-.6-2.3z"/></g></symbol><symbol viewBox="0 0 80 80" id="map" xmlns="http://www.w3.org/2000/svg"><defs><rect id="bra" width="80" height="80" rx="40"/></defs><g fill="none" fill-rule="evenodd"><mask id="brb" fill="#fff"><use xlink:href="#bra"/></mask><g fill="#F7F7F7" mask="url(#brb)"><circle cx="40" cy="40" r="40"/></g><path fill="#EDEDED" fill-rule="nonzero" d="M61.482 4.172h3v87h-3z" mask="url(#brb)" transform="rotate(30 62.982 47.672)"/><path fill="#EDEDED" fill-rule="nonzero" d="M40.5-1.5h4v87h-4z" mask="url(#brb)" transform="rotate(90 42.5 42)"/><path fill="#EDEDED" fill-rule="nonzero" d="M14.982 38.254h3v41h-3z" mask="url(#brb)" transform="rotate(30 16.482 58.754)"/><path fill="#EDEDED" fill-rule="nonzero" d="M34 33h3v10h-3z" mask="url(#brb)"/></g></symbol><symbol viewBox="0 0 105 105" id="mask" xmlns="http://www.w3.org/2000/svg"><defs><style>.bscls-1{fill:#fff}</style></defs><g id="bsLayer_2" data-name="Layer 2"><path class="bscls-1" d="M0 0v105h105V0zm52.5 92.5a40 40 0 1140-40 40 40 0 01-40 40z" id="bsLayer_2-2" data-name="Layer 2"/></g></symbol><symbol viewBox="0 0 24 24" id="modal-open" xmlns="http://www.w3.org/2000/svg"><path d="M0 11h11V0H0zM1 1h9v9H1zM13 11h11V0H13zm1-10h9v9h-9zM0 24h11V13H0zm1-10h9v9H1zM13 24h11V13H13zm1-10h9v9h-9z"/></symbol><symbol viewBox="113 0 162 388.024" id="paperclip" xmlns="http://www.w3.org/2000/svg"><path d="M262.568 136.421v171.346c0 37.796-30.757 68.547-68.559 68.547s-68.554-30.751-68.554-68.547V57.821c0-25.422 20.688-46.11 46.11-46.11 25.428 0 46.11 20.688 46.11 46.11v192.834c0 14.523-11.825 26.349-26.349 26.349-14.526 0-26.349-11.825-26.349-26.349V136.421h-11.71v114.234c0 20.984 17.074 38.059 38.059 38.059 20.116 0 36.589-15.695 37.933-35.475h.126V57.821C229.387 25.94 203.45 0 171.566 0c-31.881 0-57.821 25.94-57.821 57.821V314.72h.352c3.542 41.004 37.999 73.305 79.912 73.305 44.263 0 80.27-36 80.27-80.258V136.421h-11.711z" fill="#fff"/></symbol><symbol viewBox="0 0 100 125" id="pencil" xmlns="http://www.w3.org/2000/svg"><g data-name="Group"><path data-name="Compound Path" d="M82.9 17.1a11.8 11.8 0 00-16.6 0L21 62.3a14 14 0 00-3.7 6.7l-3.6 14.9a2 2 0 001.9 2.5h.5L31 82.7a14 14 0 006.7-3.7l45.2-45.3a11.8 11.8 0 000-16.6zm-48.1 59a10 10 0 01-4.7 2.6l-11.7 2.9 2.8-11.7a10 10 0 012.6-4.7l42-42 11 11zm45.3-45.2l-.4.4-11-11 .4-.4a7.7 7.7 0 0111 11z"/></g></symbol><symbol viewBox="0 0 25.8 20.94" id="plane" xmlns="http://www.w3.org/2000/svg"><g data-name="Layer 2"><path d="M1.72 17.85a.37.37 0 00-.49.2L0 20.94l25.8-10.47L12.32 5 0 0l4 9.3 6.64 1.17L4 11.64l-.76 1.8a.36.36 0 00.19.49h.15a.38.38 0 00.35-.23l.6-1.42 10.43-1.84L4.48 8.63 1.4 1.38 12 5.7l11.8 4.77-22.4 9.09.52-1.22a.37.37 0 00-.2-.49z" data-name="Layer 23"/></g></symbol><symbol fill="#FFF" viewBox="0 0 25.8 20.94" id="plane-white" xmlns="http://www.w3.org/2000/svg"><g data-name="Layer 2"><path d="M1.72 17.85a.37.37 0 00-.49.2L0 20.94l25.8-10.47L12.32 5 0 0l4 9.3 6.64 1.17L4 11.64l-.76 1.8a.36.36 0 00.19.49h.15a.38.38 0 00.35-.23l.6-1.42 10.43-1.84L4.48 8.63 1.4 1.38 12 5.7l11.8 4.77-22.4 9.09.52-1.22a.37.37 0 00-.2-.49z" data-name="Layer 23"/></g></symbol><symbol viewBox="-4.2 -0.85 25.75 25.7" id="plane-write-us" xmlns="http://www.w3.org/2000/svg"><g data-name="Layer 2"><path d="M9.696 21.406a.37.37 0 00-.205.488l1.174 2.913L21.505-.84l-13.4 5.664L-4.142 10l9.404 3.748 5.523-3.868-3.868 5.522.735 1.81a.36.36 0 00.481.213l.106-.106a.38.38 0 00.085-.41l-.58-1.429 6.074-8.676-8.69 6.13-7.304-2.948 10.55-4.44L20.09.573 10.68 22.841l-.495-1.23a.37.37 0 00-.488-.205z" data-name="Layer 23" fill="#FFF"/></g></symbol><symbol viewBox="0 0 134.37 109.07" id="plane_big" xmlns="http://www.w3.org/2000/svg"><g data-name="Layer 2"><path d="M0 0l20.2 47.55L57 54l2.79.49L57 55l-36.8 6.51-3.91 9.22a1.19 1.19 0 00.63 1.57 1.15 1.15 0 00.48.1 1.19 1.19 0 001.1-.73l3.3-7.76.11-.25h.26l51.48-9.09-51.48-9.12-.26-.05-.11-.25L5 5.55l-.5-1.12 1.13.46 121.18 49.18 1.14.46-1.14.46L5.62 104.18l-1.12.46.5-1.12 3-7.18a1.19 1.19 0 00-.64-1.58 1.14 1.14 0 00-.47-.1 1.2 1.2 0 00-1.11.74L0 109.07l134.37-54.54z" data-name="Layer 1"/></g></symbol><symbol viewBox="0 0 91 70" id="rotate" xmlns="http://www.w3.org/2000/svg"><g fill="none" fill-rule="evenodd"><path d="M23.252 56.997H3.48a.36.36 0 01-.359-.36V9.602a.36.36 0 01.359-.36h26.531a.36.36 0 01.36.36V36.57h1.889V4.206A3.957 3.957 0 0028.302.249h-.904a.359.359 0 00-.325-.21h-3.447a.359.359 0 00-.325.21H5.1a3.957 3.957 0 00-3.958 3.957v5.112a.359.359 0 00-.209.325v1.308c0 .145.086.268.209.324v1.521a.358.358 0 00-.209.325v1.308c0 .144.086.267.209.324v47.161A3.957 3.957 0 005.1 65.871h18.152v-8.874zm-6.67-54.2a.599.599 0 110 1.2.599.599 0 010-1.2zm-2.099 2.818h4.497a.359.359 0 110 .718h-4.497a.36.36 0 110-.718zm2.458 58.755a3.12 3.12 0 01-3.117-3.116 3.12 3.12 0 013.117-3.117 3.12 3.12 0 013.118 3.117 3.12 3.12 0 01-3.118 3.116z" fill="#979797" fill-rule="nonzero"/><path d="M16.956 58.826a2.4 2.4 0 00-2.398 2.397 2.399 2.399 0 004.796 0 2.4 2.4 0 00-2.398-2.397z" fill="#979797"/><path d="M29.667 51.631a2.4 2.4 0 00-2.398 2.397 2.401 2.401 0 002.398 2.399 2.401 2.401 0 002.398-2.399 2.401 2.401 0 00-2.398-2.397z" fill="#fff"/><path d="M90.672 60.391V42.188a3.955 3.955 0 00-3.958-3.957h-5.112a.353.353 0 00-.324-.21H79.97a.35.35 0 00-.322.21h-1.522a.358.358 0 00-.326-.21h-1.306a.353.353 0 00-.324.21H29.007a3.956 3.956 0 00-3.957 3.957v23.203a3.956 3.956 0 003.957 3.957h57.707a3.956 3.956 0 003.958-3.957v-.904a.358.358 0 00.21-.325v-3.447a.355.355 0 00-.21-.324zm-61.005-3.245a3.12 3.12 0 01-3.118-3.118 3.123 3.123 0 013.118-3.118c1.719 0 3.118 1.4 3.118 3.118a3.121 3.121 0 01-3.118 3.118zM81.68 67.1a.36.36 0 01-.361.359H34.283a.358.358 0 01-.359-.359V40.568c0-.199.161-.359.359-.359h47.035a.36.36 0 01.361.359V67.1h.001zm3.626-11.032a.36.36 0 01-.359.359.36.36 0 01-.359-.359v-4.497a.36.36 0 11.718 0v4.497zm2.217-1.8a.6.6 0 11.601-.598.599.599 0 01-.601.598z" fill="#fff" fill-rule="nonzero"/><path d="M40.382 12.092l-1.828 1.692c9.584.961 14.145 6.547 16.289 11.157 2.386 5.135 2.343 10.049 2.343 10.256l-.008.53H55.74l.008-.549c.004-.046.031-4.835-2.231-9.674-2.84-6.068-7.858-9.515-14.925-10.268l1.604 1.73-2.07-.079-2.344-2.53 2.53-2.345 2.07.08z" fill="#fff"/></g></symbol><symbol viewBox="0 0 88 19" id="starlink_txt-color" xmlns="http://www.w3.org/2000/svg"><g class="cbcurrentLayer"><g fill="#000" fill-rule="evenodd"><path d="M1.794 13.912a7.408 7.408 0 001.924 1.665c.745.45 1.587.676 2.522.676.417 0 .82-.065 1.21-.195s.728-.316 1.014-.56c.286-.242.515-.528.69-.858.172-.329.26-.702.26-1.118 0-.693-.213-1.252-.638-1.677-.425-.425-.954-.793-1.586-1.105a23.728 23.728 0 00-2.042-.884 10.273 10.273 0 01-2.002-1.014 5.967 5.967 0 01-1.651-1.613C1.053 6.588.832 5.79.832 4.837c0-.659.139-1.283.416-1.872a4.794 4.794 0 011.157-1.547A5.492 5.492 0 014.147.378C4.814.126 5.547 0 6.344 0a7.207 7.207 0 012.952.611 8.014 8.014 0 011.937 1.21L9.7 3.719C8.71 2.886 7.628 2.47 6.449 2.47c-.382 0-.75.053-1.105.157a3.09 3.09 0 00-.962.468 2.428 2.428 0 00-.69.767c-.173.303-.26.655-.26 1.053 0 .572.212 1.049.637 1.43.425.382.953.724 1.586 1.027.633.304 1.31.603 2.03.898.718.295 1.373.633 1.962 1.014.312.207.607.442.885.702.276.26.528.559.753.897.226.338.403.72.533 1.144.13.425.196.897.196 1.417 0 .798-.148 1.522-.442 2.171a5.053 5.053 0 01-1.196 1.665 5.342 5.342 0 01-1.782 1.066 6.406 6.406 0 01-2.223.377 8.062 8.062 0 01-3.511-.78C1.768 17.423.814 16.669 0 15.68l1.794-1.769zm19.841 4.551a4.27 4.27 0 01-.883.195 8.51 8.51 0 01-1.041.065c-.78 0-1.452-.126-2.015-.377a4.165 4.165 0 01-1.443-1.053 3.365 3.365 0 01-.768-1.43 7.091 7.091 0 01-.22-1.82V8.452h-3.12v-2.21h3.12v-3.38h2.47v3.38h3.9v2.21h-3.9v5.72c0 .33.021.624.065.885.043.26.143.485.299.676.173.207.416.368.728.48.312.113.633.17.962.17.19 0 .416-.013.676-.04.26-.025.485-.064.676-.116l.494 2.236zm11.182-8.4a4.607 4.607 0 00-1.47-1.248c-.598-.329-1.27-.493-2.014-.493-.59 0-1.128.108-1.613.324a3.657 3.657 0 00-1.235.885 4.163 4.163 0 00-.793 1.287 4.153 4.153 0 00-.286 1.534c0 .555.1 1.075.299 1.56.199.486.481.91.845 1.275a4.16 4.16 0 001.287.87 4.005 4.005 0 001.626.325c.623 0 1.234-.15 1.833-.455a4.326 4.326 0 001.521-1.287v-4.576zm.078 7.282a5.24 5.24 0 01-1.716 1.027 5.953 5.953 0 01-2.055.35 6.18 6.18 0 01-1.638-.22 5.934 5.934 0 01-1.43-.585 6.394 6.394 0 01-2.262-2.275c-.572-.963-.859-2.059-.859-3.29 0-1.23.29-2.332.872-3.302a6.467 6.467 0 012.275-2.289 5.782 5.782 0 011.378-.572 6.054 6.054 0 011.612-.208c.693 0 1.366.109 2.016.325a5.27 5.27 0 011.807 1.054V6.24h2.393v12.222h-2.393v-1.118zm12.898-8.92a3.805 3.805 0 00-.962-.103c-.642 0-1.266.194-1.873.585-.607.39-1.083.88-1.43 1.469v8.087h-2.47V6.241h2.392v1.405c.295-.416.754-.798 1.378-1.145.624-.346 1.387-.52 2.289-.52.139 0 .299.005.48.013.183.009.343.03.482.066l-.286 2.366z"/><path mask="url(#starlink---vertical-b)" d="M48.419 18.463h2.47V0h-2.47zM54.66 18.463h2.47V6.241h-2.47v12.222zM54.27 1.9c0-.451.156-.837.468-1.157A1.534 1.534 0 0155.882.26c.45 0 .836.16 1.157.482.32.32.481.706.481 1.157 0 .45-.16.832-.48 1.144a1.6 1.6 0 01-1.158.468c-.451 0-.832-.156-1.144-.468a1.554 1.554 0 01-.468-1.144zm9.023 5.512c.33-.312.802-.628 1.417-.95.616-.32 1.365-.48 2.25-.48.9 0 1.737.195 2.509.585.77.39 1.417.915 1.937 1.573a5.19 5.19 0 01.897 1.756c.2.668.3 1.53.3 2.587v5.981h-2.471v-6.111c0-.78-.065-1.378-.195-1.794a3.1 3.1 0 00-.533-1.04 3.233 3.233 0 00-1.105-.872 3.184 3.184 0 00-1.418-.324c-.814 0-1.512.178-2.093.532-.58.356-1.053.76-1.417 1.21v8.399h-2.47V6.241h2.392v1.17zM87.945 18.463h-3.303l-6.06-5.981v5.981h-2.47V0h2.47v10.922l5.098-4.681h3.485l-6.111 5.513z"/></g></g></symbol><symbol viewBox="0 0 88 19" id="starlink_txt-white" xmlns="http://www.w3.org/2000/svg"><g class="cccurrentLayer"><g fill="#FFF" fill-rule="evenodd"><path d="M1.794 13.912a7.408 7.408 0 001.924 1.665c.745.45 1.587.676 2.522.676.417 0 .82-.065 1.21-.195s.728-.316 1.014-.56c.286-.242.515-.528.69-.858.172-.329.26-.702.26-1.118 0-.693-.213-1.252-.638-1.677-.425-.425-.954-.793-1.586-1.105a23.728 23.728 0 00-2.042-.884 10.273 10.273 0 01-2.002-1.014 5.967 5.967 0 01-1.651-1.613C1.053 6.588.832 5.79.832 4.837c0-.659.139-1.283.416-1.872a4.794 4.794 0 011.157-1.547A5.492 5.492 0 014.147.378C4.814.126 5.547 0 6.344 0a7.207 7.207 0 012.952.611 8.014 8.014 0 011.937 1.21L9.7 3.719C8.71 2.886 7.628 2.47 6.449 2.47c-.382 0-.75.053-1.105.157a3.09 3.09 0 00-.962.468 2.428 2.428 0 00-.69.767c-.173.303-.26.655-.26 1.053 0 .572.212 1.049.637 1.43.425.382.953.724 1.586 1.027.633.304 1.31.603 2.03.898.718.295 1.373.633 1.962 1.014.312.207.607.442.885.702.276.26.528.559.753.897.226.338.403.72.533 1.144.13.425.196.897.196 1.417 0 .798-.148 1.522-.442 2.171a5.053 5.053 0 01-1.196 1.665 5.342 5.342 0 01-1.782 1.066 6.406 6.406 0 01-2.223.377 8.062 8.062 0 01-3.511-.78C1.768 17.423.814 16.669 0 15.68l1.794-1.769zm19.841 4.551a4.27 4.27 0 01-.883.195 8.51 8.51 0 01-1.041.065c-.78 0-1.452-.126-2.015-.377a4.165 4.165 0 01-1.443-1.053 3.365 3.365 0 01-.768-1.43 7.091 7.091 0 01-.22-1.82V8.452h-3.12v-2.21h3.12v-3.38h2.47v3.38h3.9v2.21h-3.9v5.72c0 .33.021.624.065.885.043.26.143.485.299.676.173.207.416.368.728.48.312.113.633.17.962.17.19 0 .416-.013.676-.04.26-.025.485-.064.676-.116l.494 2.236zm11.182-8.4a4.607 4.607 0 00-1.47-1.248c-.598-.329-1.27-.493-2.014-.493-.59 0-1.128.108-1.613.324a3.657 3.657 0 00-1.235.885 4.163 4.163 0 00-.793 1.287 4.153 4.153 0 00-.286 1.534c0 .555.1 1.075.299 1.56.199.486.481.91.845 1.275a4.16 4.16 0 001.287.87 4.005 4.005 0 001.626.325c.623 0 1.234-.15 1.833-.455a4.326 4.326 0 001.521-1.287v-4.576zm.078 7.282a5.24 5.24 0 01-1.716 1.027 5.953 5.953 0 01-2.055.35 6.18 6.18 0 01-1.638-.22 5.934 5.934 0 01-1.43-.585 6.394 6.394 0 01-2.262-2.275c-.572-.963-.859-2.059-.859-3.29 0-1.23.29-2.332.872-3.302a6.467 6.467 0 012.275-2.289 5.782 5.782 0 011.378-.572 6.054 6.054 0 011.612-.208c.693 0 1.366.109 2.016.325a5.27 5.27 0 011.807 1.054V6.24h2.393v12.222h-2.393v-1.118zm12.898-8.92a3.805 3.805 0 00-.962-.103c-.642 0-1.266.194-1.873.585-.607.39-1.083.88-1.43 1.469v8.087h-2.47V6.241h2.392v1.405c.295-.416.754-.798 1.378-1.145.624-.346 1.387-.52 2.289-.52.139 0 .299.005.48.013.183.009.343.03.482.066l-.286 2.366z"/><path mask="url(#starlink---vertical-b)" d="M48.419 18.463h2.47V0h-2.47zM54.66 18.463h2.47V6.241h-2.47v12.222zM54.27 1.9c0-.451.156-.837.468-1.157A1.534 1.534 0 0155.882.26c.45 0 .836.16 1.157.482.32.32.481.706.481 1.157 0 .45-.16.832-.48 1.144a1.6 1.6 0 01-1.158.468c-.451 0-.832-.156-1.144-.468a1.554 1.554 0 01-.468-1.144zm9.023 5.512c.33-.312.802-.628 1.417-.95.616-.32 1.365-.48 2.25-.48.9 0 1.737.195 2.509.585.77.39 1.417.915 1.937 1.573a5.19 5.19 0 01.897 1.756c.2.668.3 1.53.3 2.587v5.981h-2.471v-6.111c0-.78-.065-1.378-.195-1.794a3.1 3.1 0 00-.533-1.04 3.233 3.233 0 00-1.105-.872 3.184 3.184 0 00-1.418-.324c-.814 0-1.512.178-2.093.532-.58.356-1.053.76-1.417 1.21v8.399h-2.47V6.241h2.392v1.17zM87.945 18.463h-3.303l-6.06-5.981v5.981h-2.47V0h2.47v10.922l5.098-4.681h3.485l-6.111 5.513z"/></g></g></symbol><symbol viewBox="0 0 60 60" id="write_us" xmlns="http://www.w3.org/2000/svg"><path fill="#47B100" fill-rule="evenodd" d="M42.456 2.132l-1.473 4.6-5.716-1.617 1.473-4.6L34.915 0l-3.49 10.902 1.82.514 1.521-4.752 5.72 1.617-1.521 4.752 1.818.515 3.493-10.902-1.82-.514zm9.427 14.574a2.66 2.66 0 00.968-2.086 3.216 3.216 0 00-1.033-2.293 4.182 4.182 0 00-.922-.712 3.94 3.94 0 00-.898-.392 5.208 5.208 0 00-.795-.147 4.484 4.484 0 00-.54-.037 4.37 4.37 0 00-.223.014l-.061 1.492.372-.031c.311-.013.622.04.908.156a2.6 2.6 0 011.013.65c.325.304.51.715.518 1.145a1.32 1.32 0 01-.482 1.042l-2.444-1.758a3.12 3.12 0 00-1.847-.66 2.501 2.501 0 00-1.698.65 1.993 1.993 0 00-.666 1.65c.03.722.347 1.407.889 1.92.195.199.417.373.66.519.207.129.428.237.66.324.188.067.383.12.581.158.132.028.266.049.401.062l.158.01-.632.55 1.176 1.193 3.937-3.42zm-6.126-1.148a.822.822 0 01.26-.74 1.06 1.06 0 01.742-.277c.287.011.564.108.79.277l2.14 1.578-.124.108c-.45.446-1.068.71-1.723.734a2.215 2.215 0 01-1.584-.738 1.57 1.57 0 01-.5-.942zM57.61 25.791l-6.467 1.818.496 1.559 7.957-2.236-2.163-6.777-7.957 2.236.499 1.56 6.467-1.819 1.168 3.659zm-3.29 8.188l5.356.948.324-1.6-8.165-1.445-.288 1.434 4.555 4.943-5.355-.948-.324 1.6 8.161 1.444.288-1.436-4.552-4.94zM46.774 44.11a3.57 3.57 0 00-.563 1.003c-.12.31-.203.63-.246.958-.03.273-.034.55-.014.824.009.189.031.377.068.564.025.097.045.17.06.221l1.574-.211-.1-.378a2.612 2.612 0 01-.013-.988c.142-1.083 1.063-1.929 2.219-2.038 1.504-.151 2.876.816 3.142 2.215a2.202 2.202 0 01-.455 1.83 2.4 2.4 0 01-1.013.739c-.28.125-.576.213-.88.262-.14.012-.282.013-.422.005l.222 1.476.541-.049a4.462 4.462 0 002.805-1.556c1.434-1.796 1.047-4.344-.865-5.69-1.911-1.348-4.622-.984-6.056.812l-.004.001zM39.8 55.477a2.882 2.882 0 001.907 1.4 3.72 3.72 0 002.62-.368c.352-.177.675-.4.96-.662a3.61 3.61 0 00.628-.72c.137-.22.253-.45.35-.687a3.81 3.81 0 00.173-.485 3.46 3.46 0 00.04-.203l-1.523-.428-.06.347a1.902 1.902 0 01-.389.788c-.238.319-.554.58-.921.76a1.866 1.866 0 01-1.31.185 1.435 1.435 0 01-.953-.699l2.422-1.786c.55-.37.953-.903 1.142-1.514.16-.578.071-1.19-.246-1.707a2.193 2.193 0 00-1.534-1.017 3.242 3.242 0 00-2.201.33 3.386 3.386 0 00-.699.472 3.49 3.49 0 00-.498.52 3.51 3.51 0 00-.31.49 3.48 3.48 0 00-.164.35l-.049.141-.408-.711-1.525.772 2.548 4.432zm2.713-5.292a.914.914 0 01.699.422.912.912 0 01.1.743 1.275 1.275 0 01-.481.65l-2.163 1.554-.08-.14a2.241 2.241 0 01-.324-1.751 2.075 2.075 0 011.155-1.257 1.797 1.797 0 011.094-.22zm-9.443 8.018l-.533-6.324-1.719.128.533 6.324-2.846.213.122 1.456 7.412-.552-.123-1.456-2.846.211zm-10.037-3.019l-1.803-.567c-.726-.228-1.117-.966-.874-1.648.243-.682 1.029-1.05 1.754-.821l1.802.568-.88 2.468zm-2.271.743l1.802.567-.824 2.31 1.643.518 2.638-7.4-3.446-1.084a3.362 3.362 0 00-2.397.04 2.77 2.77 0 00-1.464 1.574 2.56 2.56 0 00.166 2.085 3.14 3.14 0 001.887 1.393l-.005-.003zM8.387 44.037l2.805-1.91-1.017-1.321-6.724 4.579 1.016 1.32 2.662-1.814 2.385 3.092-2.662 1.812 1.017 1.321 6.724-4.58-1.016-1.321-2.806 1.91-2.384-3.088zM2.705 32.97a2.92 2.92 0 00-2.023 1.25 3.145 3.145 0 00-.468 2.45c.066.37.187.729.36 1.067.138.283.314.548.525.79.177.191.372.369.58.53.138.11.282.213.433.305.08.044.144.078.195.102l.919-1.22-.33-.164a2.031 2.031 0 01-.67-.598 2.354 2.354 0 01-.47-1.064 1.577 1.577 0 01.23-1.225 1.454 1.454 0 011.01-.625l1.026 2.726a2.842 2.842 0 001.164 1.51 2.55 2.55 0 001.8.328 2.188 2.188 0 001.513-1.04 2.738 2.738 0 00.371-2.066 3.038 3.038 0 00-.252-.773 3.355 3.355 0 00-.363-.61 3.635 3.635 0 00-.396-.432 3.537 3.537 0 00-.3-.258l-.127-.088.853-.143-.29-1.6-5.29.847zm4.465 4.107a.899.899 0 01-.649.487c-.27.05-.55-.004-.777-.15a1.282 1.282 0 01-.505-.642l-.876-2.42.165-.019a2.652 2.652 0 011.87.268c.503.335.83.856.899 1.431.084.352.039.72-.127 1.045zM.433 25.738L0 26.976l7.895 2.421.54-1.547-5.179-1.589 3.875-1.459-2.21-3.333 5.18 1.59.54-1.549-7.898-2.421-.433 1.238 2.512 3.769-4.39 1.642z"/></symbol></svg>